<?xml version="1.0" encoding="UTF-8" standalone="no"?>
<svg
   xmlns:dc="http://purl.org/dc/elements/1.1/"
   xmlns:cc="http://creativecommons.org/ns#"
   xmlns:rdf="http://www.w3.org/1999/02/22-rdf-syntax-ns#"
   xmlns:svg="http://www.w3.org/2000/svg"
   xmlns="http://www.w3.org/2000/svg"
   viewBox="0 0 171.412 243.22267"
   height="243.22267"
   width="171.412"
   xml:space="preserve"
   id="svg2"
   version="1.1"><metadata
     id="metadata8"><rdf:RDF><cc:Work
         rdf:about=""><dc:format>image/svg+xml</dc:format><dc:type
           rdf:resource="http://purl.org/dc/dcmitype/StillImage" /></cc:Work></rdf:RDF></metadata><defs
     id="defs6"><radialGradient
       id="radialGradient30"
       spreadMethod="pad"
       gradientTransform="matrix(7.2945299,0,0,-7.2945299,63.46249,60.625801)"
       gradientUnits="userSpaceOnUse"
       r="1"
       cy="0"
       cx="0"
       fy="0"
       fx="0"><stop
         id="stop24"
         offset="0"
         style="stop-opacity:1;stop-color:#f8ecc3" /><stop
         id="stop26"
         offset="0.98870894"
         style="stop-opacity:1;stop-color:#e0c08b" /><stop
         id="stop28"
         offset="1"
         style="stop-opacity:1;stop-color:#e0c08b" /></radialGradient><linearGradient
       id="linearGradient50"
       spreadMethod="pad"
       gradientTransform="matrix(115.6287,0,0,-115.6287,2.7423358,91.246803)"
       gradientUnits="userSpaceOnUse"
       y2="0"
       x2="1"
       y1="0"
       x1="0"><stop
         id="stop46"
         offset="0"
         style="stop-opacity:1;stop-color:#918f90" /><stop
         id="stop48"
         offset="1"
         style="stop-opacity:1;stop-color:#d3d2d2" /></linearGradient><clipPath
       id="clipPath60"
       clipPathUnits="userSpaceOnUse"><path
         id="path58"
         d="M 0,182.417 H 128.559 V 0 H 0 Z" /></clipPath><linearGradient
       id="linearGradient90"
       spreadMethod="pad"
       gradientTransform="matrix(-19.469181,21.779074,21.779074,19.469181,58.054592,105.95023)"
       gradientUnits="userSpaceOnUse"
       y2="0"
       x2="1"
       y1="0"
       x1="0"><stop
         id="stop86"
         offset="0"
         style="stop-opacity:1;stop-color:#cd7e7c" /><stop
         id="stop88"
         offset="1"
         style="stop-opacity:1;stop-color:#e2a4a0" /></linearGradient><linearGradient
       id="linearGradient110"
       spreadMethod="pad"
       gradientTransform="matrix(-56.09697,-9.5693836,-9.5693836,56.09697,78.202972,63.244274)"
       gradientUnits="userSpaceOnUse"
       y2="0"
       x2="1"
       y1="0"
       x1="0"><stop
         id="stop106"
         offset="0"
         style="stop-opacity:1;stop-color:#3871c1" /><stop
         id="stop108"
         offset="1"
         style="stop-opacity:1;stop-color:#293d9b" /></linearGradient><linearGradient
       id="linearGradient130"
       spreadMethod="pad"
       gradientTransform="matrix(36.513115,0,0,-36.513115,25.704416,56.276394)"
       gradientUnits="userSpaceOnUse"
       y2="0"
       x2="1"
       y1="0"
       x1="0"><stop
         id="stop126"
         offset="0"
         style="stop-opacity:1;stop-color:#bdbcbc" /><stop
         id="stop128"
         offset="1"
         style="stop-opacity:1;stop-color:#e9e9e9" /></linearGradient><clipPath
       id="clipPath140"
       clipPathUnits="userSpaceOnUse"><path
         id="path138"
         d="M 0,182.417 H 128.559 V 0 H 0 Z" /></clipPath><linearGradient
       id="linearGradient206"
       spreadMethod="pad"
       gradientTransform="matrix(9.3593473,0,0,-9.3593473,116.44571,122.82285)"
       gradientUnits="userSpaceOnUse"
       y2="0"
       x2="1"
       y1="0"
       x1="0"><stop
         id="stop202"
         offset="0"
         style="stop-opacity:1;stop-color:#3871c1" /><stop
         id="stop204"
         offset="1"
         style="stop-opacity:1;stop-color:#293d9b" /></linearGradient><linearGradient
       id="linearGradient226"
       spreadMethod="pad"
       gradientTransform="matrix(28.557596,0,0,-28.557596,32.118637,58.012703)"
       gradientUnits="userSpaceOnUse"
       y2="0"
       x2="1"
       y1="0"
       x1="0"><stop
         id="stop222"
         offset="0"
         style="stop-opacity:1;stop-color:#fff200" /><stop
         id="stop224"
         offset="1"
         style="stop-opacity:1;stop-color:#fde179" /></linearGradient><clipPath
       id="clipPath236"
       clipPathUnits="userSpaceOnUse"><path
         id="path234"
         d="M 0,182.417 H 128.559 V 0 H 0 Z" /></clipPath></defs><g
     transform="matrix(1.3333333,0,0,-1.3333333,0,243.22267)"
     id="g10"><g
       id="g12"><g
         id="g14"><g
           id="g20"><g
             id="g22"><path
               id="path32"
               style="fill:url(#radialGradient30);stroke:none"
               d="m 46.767,77.302 -0.174,-0.05 -2.043,-0.72 c 0,0 -3.325,-1.885 7.817,-12.609 v 0 C 62.802,53.876 65.832,57.47 65.832,57.47 v 0 l 0.055,1.842 v 0.577 c 0.001,2.159 -3.074,6.558 -7.686,10.759 v 0 c -1.063,0.968 -2.128,1.853 -3.165,2.642 v 0 l -7.113,3.91 c -0.334,0.075 -0.639,0.113 -0.911,0.113 v 0 c -0.085,0 -0.167,-0.004 -0.245,-0.011" /></g></g></g></g><g
       id="g34"><g
         id="g36"><g
           id="g42"><g
             id="g44"><path
               id="path52"
               style="fill:url(#linearGradient50);stroke:none"
               d="m 40.968,144.71 c 0,0 0.811,-0.39 1.087,-0.677 v 0 c 0.528,-0.547 0.7,-0.948 0.7,-0.948 v 0 c 0,0 -1.441,0.916 -3.628,0.397 v 0 c -1.294,-0.304 -1.957,-1.61 -1.957,-1.61 v 0 c 0,0 1.293,0.323 1.612,0.345 v 0 c 0.315,0.022 0.92,-0.173 0.92,-0.173 v 0 c 0,0 -5.305,-4.455 -7.194,-9.839 v 0 c -2.128,-6.073 -1.535,-9.35 -1.265,-12.374 v 0 c 0.747,-8.374 6.222,-12.572 9.668,-13.553 v 0 c 4.55,-1.295 9.034,-0.144 9.034,-0.144 v 0 c 0,0 2.75,-3.459 3.798,-4.487 v 0 c 0.847,-0.831 3.685,-2.994 3.685,-2.994 v 0 c 0,0 -0.119,-1.524 -0.158,-2.033 v 0 c -0.047,-0.614 -0.188,-2.455 -0.188,-2.455 v 0 c 0,0 -2.101,1.927 -5.755,1.726 v 0 c -1.473,-0.08 -5.866,-1.87 -7.74,-3.597 v 0 c -0.781,-0.72 -2.84,-1.465 -3.713,-2.071 v 0 C 35.645,87.288 34.267,84.54 32.107,82.08 v 0 c -1.302,-1.481 -2.842,-3.572 -1.772,-5.195 v 0 c 0.642,-0.972 2.591,-2.205 5.266,-2.33 v 0 c 0.159,-0.007 0.472,-0.018 0.472,-0.018 v 0 l 6.672,0.166 1.819,1.832 1.753,0.665 0.604,0.114 0.882,-0.096 c 0,0 -0.039,-0.984 0.565,-1.976 v 0 c 0.604,-0.993 1.856,-1.682 3.452,-1.037 v 0 l 0.302,0.172 c 0,0 1.149,-1.476 3.011,-1.087 v 0 l 3.068,-2.642 c 6.632,6.681 10.246,11.181 9.221,14.053 v 0 l 0.182,0.022 c 0,0 6.086,1.121 8.252,1.832 v 0 c 2.236,0.734 9.151,3.922 9.151,3.922 v 0 c 0,0 7.239,1.255 9.581,1.958 v 0 c 2.412,0.724 9.228,3.702 9.228,3.702 v 0 l 0.12,0.052 c 0.138,-0.251 0.339,-0.457 0.623,-0.575 v 0 c 0.373,-0.154 0.783,-0.268 1.217,-0.349 v 0 l 3.541,-0.095 c 1.415,0.13 2.666,0.41 3.268,0.62 v 0 c 1.219,0.428 3.498,2.622 3.06,4.399 v 0 c -0.062,0.249 -0.142,0.526 -0.247,0.808 v 0 l -0.007,0.02 c 0,0 1.21,0.8 1.461,1.606 v 0 c 0.128,0.406 0.232,1.143 -0.014,1.865 v 0 l -0.01,0.024 c 0,0 1.543,-0.01 1.543,2.417 v 0 c 0,1.338 -1.399,2.192 -2.244,2.325 v 0 c -1.902,0.301 -3.608,-0.152 -3.608,-0.152 v 0 l -0.052,-0.012 c -1.903,0.72 -5.928,-1.03 -7.463,-2.959 v 0 c -0.867,-1.091 -2.3,-5.078 -2.3,-5.078 v 0 c 0,0 -6.946,-0.622 -9.208,-1.052 v 0 c -3.784,-0.718 -9.151,-2.847 -9.151,-2.847 v 0 c 0,0 -5.769,-0.677 -9.481,-1.756 v 0 c -2.553,-0.742 -8.358,-2.963 -8.358,-2.963 v 0 c 0,0 -1.566,0.417 -2.096,0.518 v 0 c -1.286,0.244 -2.714,-0.111 -2.714,-0.111 v 0 c 0,0 1.978,1.533 2.517,2.129 v 0 c 0.539,0.596 2.155,2.601 2.155,2.601 v 0 c 0,0 1.748,-0.484 4.707,0.004 v 0 c 3.052,0.502 6.792,2.428 6.792,2.428 v 0 c 0,0 3.155,0.004 7.423,1.756 v 0 c 6.445,2.65 8.812,5.464 11.624,8.98 v 0 c 4.604,5.754 3.701,8.554 2.994,9.207 v 0 c -1.105,1.017 -3.74,1.263 -5.986,0.921 v 0 c -4.486,-0.685 -7.832,-1.614 -10.55,-2.57 v 0 l 0.028,0.011 c 0,0 1.187,1.61 1.66,2.214 v 0 c 0.601,0.764 0.552,3.338 -2.184,3.217 v 0 c -0.918,-0.039 -1.696,-0.374 -2.353,-0.705 v 0 c 0,0 -0.579,1.307 -0.967,1.717 v 0 c -0.729,0.776 -1.611,1.229 -1.611,1.229 v 0 c 0,0.351 -0.011,0.732 -0.04,1.147 v 0 c -0.072,1.003 -0.385,3.903 -1.449,4.604 v 0 c -0.237,0.157 -0.514,0.286 -0.832,0.382 v 0 c 0,0 -0.398,2.29 -3.427,5.801 v 0 c -3.324,3.855 -5.436,3.584 -5.436,3.584 v 0 -8.064 c -0.325,-0.117 -0.652,-0.249 -0.95,-0.396 v 0 c -1.423,-0.7 -2.159,-2.417 -2.159,-2.417 v 0 c 0,0 -0.53,0.893 -0.819,1.251 v 0 c -0.735,0.907 -1.71,1.166 -1.71,1.166 v 0 c 0,0 0.645,-1.248 0.803,-1.68 v 0 c 0.304,-0.819 0.172,-1.629 0.172,-1.629 v 0 h -1.951 l -0.127,0.021 c -1.033,5.226 -3.329,8.869 -5.931,11.142 v 0 c -3.882,3.394 -8.523,3.942 -11.116,3.942 v 0 c -1.235,0 -2.005,-0.125 -2.005,-0.125 M 64.86,118.853 c -0.091,2.247 1.472,5.811 2.822,7.194 v 0 c 3.134,3.214 6.439,3.561 7.536,1.984 v 0 c 1.296,-1.86 0.606,-8.803 0.606,-8.803 v 0 c 0,0 2.571,1.311 3.425,1.554 v 0 c 0.72,0.204 1.976,0.542 2.589,0.315 v 0 c 1.323,-0.488 -0.076,-3.393 -0.076,-3.393 v 0 l 0.005,0.002 c -0.453,-0.175 -0.889,-0.35 -1.311,-0.522 v 0 c -5.268,-2.155 -9.182,-3.92 -11.773,-3.921 v 0 c -2.392,0 -3.657,1.503 -3.823,5.59 M 6.425,90.301 C 3.893,89.615 2.742,86.22 2.742,86.22 v 0 c 0,0 3.166,6.272 8.374,1.927 v 0 c 2.068,-1.725 1.251,-8.073 0.862,-10.739 v 0 c -0.661,-4.54 -1.218,-9.726 3.627,-13.572 v 0 c 3.404,-2.703 7.624,-0.954 10.099,0.401 v 0 c 1.449,0.791 4.22,3.042 5.869,3.02 v 0 c 2.302,-0.029 2.758,-1.203 2.758,-1.203 v 0 l 2.904,3.106 c 0,0 -1.986,1.424 -6.092,0.795 v 0 C 29.406,69.69 26.219,67.942 24.84,66.854 v 0 c -1.637,-1.293 -3.591,-2.453 -7.22,-1.242 v 0 c -2.82,0.936 -4.462,5.104 -4.001,8.342 v 0 c 0.343,2.407 0.976,6.81 0.691,9.704 v 0 c -0.113,1.137 -1.093,4.575 -2.676,5.698 v 0 c -1.286,0.912 -2.539,1.169 -3.555,1.169 v 0 c -0.675,0 -1.246,-0.114 -1.654,-0.224 m 53.042,-39.142 4.551,-6.75 c 0,0 -1.8,-1.349 -1.8,-2.673 v 0 c 0,-1.553 1.478,-2.038 2.22,-2.36 v 0 c 3.488,-1.511 18.919,-3.179 19.906,0.518 v 0 c 0.761,2.85 -4.064,4.789 -5.984,5.41 v 0 c -0.934,0.301 -3.88,1.151 -7.168,1.058 v 0 l -0.071,0.116 -6.151,10.15 z M 23.402,43.173 c -0.34,-0.634 -1.523,-3.613 2.302,-4.574 v 0 c 1.429,-0.359 4.396,-0.488 5.869,-0.491 v 0 c 7.136,-0.004 8.278,1.486 8.278,1.486 v 0 L 40.2,41.167 28.583,51.735 c 0,0 -3.494,-5.416 -5.181,-8.562" /></g></g></g></g><g
       id="g54"><g
         clip-path="url(#clipPath60)"
         id="g56"><g
           transform="translate(81.6224,117.6996)"
           id="g62"><path
             id="path64"
             style="fill:#ffffff;fill-opacity:1;fill-rule:nonzero;stroke:none"
             d="M 0,0 C 0,0 1.444,2.776 0.075,3.393 -1.293,4.01 -5.938,1.524 -5.938,1.524 c 0,0 1.173,8.225 -1.371,9.447 -3.98,1.912 -12.757,-6.301 -8.545,-14.107 0,0 0.36,-3.09 8.926,0.325 C 1.638,0.604 0,0 0,0" /></g><g
           transform="translate(94.6617,108.2026)"
           id="g66"><path
             id="path68"
             style="fill:#000000;fill-opacity:1;fill-rule:nonzero;stroke:none"
             d="m 0,0 c -2.669,1.051 -5.568,2.507 -7.899,5.064 -1.785,1.958 -2.102,4.057 -0.606,5.947 0,0 10.069,3.304 13.611,0.729 C 6.765,10.534 5.467,7.328 3.632,4.532 2.054,2.127 0,0 0,0" /></g><g
           transform="translate(92.6774,119.6738)"
           id="g70"><path
             id="path72"
             style="fill:#000000;fill-opacity:1;fill-rule:nonzero;stroke:none"
             d="m 0,0 c -3.208,-0.555 -5.723,-1.497 -5.618,-2.105 0.105,-0.608 2.79,-0.652 5.999,-0.098 3.208,0.555 5.723,1.498 5.618,2.106 C 5.894,0.511 3.208,0.555 0,0" /></g></g></g><g
       id="g74"><g
         id="g76"><g
           id="g82"><g
             id="g84"><path
               id="path92"
               style="fill:url(#linearGradient90);stroke:none"
               d="m 42.753,137.377 c -0.667,0.493 -1.079,0.75 -1.079,0.75 v 0 z m 0.016,-0.012 c 0.001,0 0.001,0 0.001,0 v 0 l -0.017,0.012 c 0.006,-0.004 0.011,-0.008 0.016,-0.012 m -7.743,-16.76 c 0.03,-0.375 0.921,-8.086 6.907,-10.36 v 0 c 5.298,-2.012 9.149,1.208 9.149,1.208 v 0 c 0,0 -0.216,1.124 -0.863,1.814 v 0 c -1.376,1.467 -2.978,1.122 -2.978,1.122 v 0 c 0,0 0.562,1.251 2.073,1.424 v 0 c 1.549,0.176 3.019,-0.603 3.019,-0.603 v 0 c 0,0 -0.444,1.829 -2.222,2.9 v 0 c -1.273,0.767 -3.689,0.508 -3.689,0.508 v 0 c 0,0 0.863,2.073 2.157,2.418 v 0 c 2.441,0.651 4.834,-1.727 4.834,-1.727 v 0 c 0,0 -0.432,5.179 -3.108,9.799 v 0 c -2.381,4.109 -5.803,6.973 -7.536,8.257 v 0 c -0.072,-0.053 -8.545,-6.303 -7.743,-16.76" /></g></g></g></g><g
       id="g94"><g
         id="g96"><g
           id="g102"><g
             id="g104"><path
               id="path112"
               style="fill:url(#linearGradient110);stroke:none"
               d="m 26.304,58.145 c -0.597,-0.659 -0.42,-1.886 0.369,-3.453 v 0 l 1.158,-1.921 c 1.144,-1.664 2.762,-3.549 4.724,-5.472 v 0 l 1.791,-1.676 c 2.004,-1.797 4.017,-3.312 5.854,-4.456 v 0 l 2.084,-1.175 c 2.483,-1.243 4.414,-1.584 5.191,-0.729 v 0 l 18.326,18.176 c -0.86,-0.832 -2.562,-0.693 -4.686,0.218 v 0 l -2.219,1.138 c -1.887,1.116 -3.907,2.639 -5.942,4.551 v 0 l -1.732,1.697 c -1.946,1.967 -3.643,3.859 -4.894,5.541 v 0 l -1.384,2.107 c -0.942,1.7 -1.173,3.047 -0.394,3.841 v 0 z m 39.497,-0.706 c 0.011,0.011 0.021,0.021 0.031,0.031 v 0 z" /></g></g></g></g><g
       id="g114"><g
         id="g116"><g
           id="g122"><g
             id="g124"><path
               id="path132"
               style="fill:url(#linearGradient130);stroke:none"
               d="m 43.141,70.854 v -1.036 l -13.553,-13.134 -0.907,-0.043 -2.977,-2.893 1.381,-1.639 3.151,2.804 0.187,1.036 13.638,13.294 h 0.749 l 2.993,2.644 -1.611,2.067 z m 6.56,-7.136 -0.043,-1.207 -13.769,-13.251 -1.207,-0.13 -3.109,-2.676 1.684,-1.813 3.108,2.805 0.388,1.037 13.768,13.466 h 0.907 l 2.875,2.63 -1.58,1.772 z M 57.643,57.632 57.298,56.596 43.4,43.303 42.149,43.089 39.256,40.24 l 1.51,-1.641 3.194,2.935 0.216,0.733 14.028,13.465 1.121,0.217 2.893,2.763 -1.598,1.683 z" /></g></g></g></g><g
       id="g134"><g
         clip-path="url(#clipPath140)"
         id="g136"><g
           transform="translate(57.6947,71.1024)"
           id="g142"><path
             id="path144"
             style="fill:#000000;fill-opacity:1;fill-rule:nonzero;stroke:none"
             d="m 0,0 c 0.881,0.882 2.322,2.515 3.144,3.658 0,0 -2.696,-0.116 -3.99,0.91 0,0 -0.38,-2.168 -1.715,-2.381 L 0,0" /></g><g
           transform="translate(66.1601,92.4345)"
           id="g146"><path
             id="path148"
             style="fill:#000000;fill-opacity:1;fill-rule:nonzero;stroke:none"
             d="m 0,0 c 0.633,-5.466 -0.116,-8.864 -3.885,-15.481 0,0 -0.362,1.759 -1.415,2.39 -1.053,0.632 -2.593,1.044 -2.593,1.044 3.001,3.649 2.572,8.95 2.572,12.047 0,0 0.898,0.657 2.518,0.603 C -1.182,0.548 0,0 0,0" /></g><g
           transform="translate(77.222,118.6903)"
           id="g150"><path
             id="path152"
             style="fill:#000000;fill-opacity:1;fill-rule:nonzero;stroke:none"
             d="M 0,0 C -0.159,-0.448 -0.141,-0.863 0.043,-0.927 0.225,-0.992 0.502,-0.683 0.662,-0.236 0.82,0.211 0.801,0.626 0.619,0.691 0.435,0.756 0.159,0.447 0,0 m 0.75,1.013 c 0.481,-0.172 0.607,-1.059 0.278,-1.98 -0.327,-0.922 -0.984,-1.529 -1.466,-1.357 -0.483,0.172 -0.608,1.057 -0.281,1.978 0.33,0.922 0.985,1.529 1.469,1.359" /></g><g
           transform="translate(70.7226,125.2373)"
           id="g154"><path
             id="path156"
             style="fill:#000000;fill-opacity:1;fill-rule:nonzero;stroke:none"
             d="m 0,0 c -0.361,0.126 -0.897,-0.467 -1.194,-1.325 -0.296,-0.856 -0.246,-1.653 0.117,-1.778 0.361,-0.125 0.896,0.468 1.194,1.324 C 0.414,-0.922 0.361,-0.126 0,0 m 1.124,-2.791 c -0.561,-1.615 -1.693,-2.69 -2.529,-2.4 -0.836,0.291 -1.058,1.834 -0.497,3.45 0.561,1.615 1.693,2.689 2.528,2.4 0.836,-0.291 1.06,-1.836 0.498,-3.45" /></g><g
           transform="translate(57.5884,57.4706)"
           id="g158"><path
             id="path160"
             style="fill:#000000;fill-opacity:1;fill-rule:nonzero;stroke:none"
             d="M 0,0 1.493,-1.567 0.615,-1.738 -0.291,-0.874 Z" /></g><g
           transform="translate(49.7007,63.7178)"
           id="g162"><path
             id="path164"
             style="fill:#000000;fill-opacity:1;fill-rule:nonzero;stroke:none"
             d="M 0,0 1.521,-1.769 0.66,-1.928 -0.043,-1.207 Z" /></g><g
           transform="translate(43.1409,70.8545)"
           id="g166"><path
             id="path168"
             style="fill:#000000;fill-opacity:1;fill-rule:nonzero;stroke:none"
             d="M 0,0 1.669,-1.611 0.834,-1.695 0,-1.036 Z" /></g><g
           transform="translate(43.3999,43.3036)"
           id="g170"><path
             id="path172"
             style="fill:#000000;fill-opacity:1;fill-rule:nonzero;stroke:none"
             d="M 0,0 0.886,-0.931 0.56,-1.769 -0.949,-0.165 Z" /></g><g
           transform="translate(35.8893,49.2599)"
           id="g174"><path
             id="path176"
             style="fill:#000000;fill-opacity:1;fill-rule:nonzero;stroke:none"
             d="M 0,0 0.822,-0.888 0.56,-1.584 -0.924,-0.1 Z" /></g><g
           transform="translate(29.4749,56.6783)"
           id="g178"><path
             id="path180"
             style="fill:#000000;fill-opacity:1;fill-rule:nonzero;stroke:none"
             d="M 0,0 0.913,-0.919 0.787,-1.624 -0.636,-0.032 Z" /></g><g
           transform="translate(116.6875,117.3527)"
           id="g182"><path
             id="path184"
             style="fill:#894b21;fill-opacity:1;fill-rule:nonzero;stroke:none"
             d="m 0,0 -4.162,-8.438 3.115,-0.004 3.458,7.49 c 0,0 0.134,0.974 -0.727,1.354 C 0.822,0.782 0,0 0,0" /></g><g
           transform="translate(107.1244,97.9937)"
           id="g186"><path
             id="path188"
             style="fill:#894b21;fill-opacity:1;fill-rule:nonzero;stroke:none"
             d="m 0,0 -2.178,-4.408 c 0,0 0.532,-0.69 1.416,-1.151 0.887,-0.459 1.692,0 1.692,0 l 2.388,5.18 c 0,0 -0.707,-0.252 -1.917,-0.032 C 0.191,-0.191 0,0 0,0" /></g></g></g><g
       id="g190"><g
         id="g192"><g
           id="g198"><g
             id="g200"><path
               id="path208"
               style="fill:url(#linearGradient206);stroke:none"
               d="m 117.551,125.978 c -1.815,-3.861 0.495,-6.543 0.495,-6.543 v 0 c 0,0 -1.026,0.304 -1.445,-0.862 v 0 c -0.438,-1.22 0.189,-1.334 0.189,-1.334 v 0 c 0,0 0.931,0.86 1.581,0.515 v 0 c 0.646,-0.344 0.524,-1.44 0.524,-1.44 v 0 c 0,0 0.909,-0.093 1.36,0.809 v 0 c 0.482,0.963 -0.287,1.45 -0.287,1.45 v 0 c 0,0 3.192,0 5.007,3.544 v 0 c 1.261,2.471 1.316,5.255 -1.471,6.823 v 0 c 0,0 -0.72,0.394 -1.723,0.394 v 0 c -1.251,0 -2.942,-0.611 -4.23,-3.356" /></g></g></g></g><g
       id="g210"><g
         id="g212"><g
           id="g218"><g
             id="g220"><path
               id="path228"
               style="fill:url(#linearGradient226);stroke:none"
               d="m 32.464,64.353 c -0.677,-0.748 -0.329,-2.236 0.78,-4.124 v 0 l 6.952,6.736 c -1.123,2.037 -1.447,3.654 -0.744,4.428 v 0 z m 1.377,-5.071 c 1.308,-1.947 3.289,-4.217 5.706,-6.502 v 0 l 6.858,6.6 c -2.434,2.294 -4.379,4.623 -5.65,6.64 v 0 z m 6.61,-7.338 c 2.322,-2.105 4.594,-3.887 6.583,-5.165 v 0 l 7.141,6.83 c -2.19,1.193 -4.677,2.956 -7.097,5.149 v 0 z m 7.712,-5.852 c 2.472,-1.42 4.373,-1.897 5.173,-1.015 v 0 l 7.248,7.19 c -0.832,-0.742 -2.772,-0.419 -5.221,0.737 v 0 z m 12.421,6.175 c 0.033,0.029 0.063,0.059 0.092,0.091 v 0 z" /></g></g></g></g><g
       id="g230"><g
         clip-path="url(#clipPath236)"
         id="g232"><g
           transform="translate(94.6617,108.2026)"
           id="g238"><path
             id="path240"
             style="fill:#000000;fill-opacity:1;fill-rule:nonzero;stroke:none"
             d="m 0,0 c -2.669,1.051 -5.568,2.507 -7.899,5.064 -1.785,1.958 -2.102,4.057 -0.606,5.947 0,0 10.069,3.304 13.611,0.729 C 6.765,10.534 5.467,7.328 3.632,4.532 2.054,2.127 0,0 0,0" /></g><g
           transform="translate(92.6774,119.6738)"
           id="g242"><path
             id="path244"
             style="fill:#ffffff;fill-opacity:1;fill-rule:nonzero;stroke:none"
             d="m 0,0 c -3.208,-0.555 -5.723,-1.497 -5.618,-2.105 0.105,-0.608 2.79,-0.652 5.999,-0.098 3.208,0.555 5.723,1.498 5.618,2.106 C 5.894,0.511 3.208,0.555 0,0" /></g><g
           transform="translate(60.3438,125.514)"
           id="g246"><path
             id="path248"
             style="fill:#000000;fill-opacity:1;fill-rule:nonzero;stroke:none"
             d="m 0,0 c -0.114,1.289 -0.284,2.568 -0.544,3.828 -0.263,1.259 -0.6,2.5 -1.037,3.703 -0.438,1.202 -0.977,2.365 -1.629,3.458 -0.65,1.092 -1.402,2.123 -2.273,3.04 -0.87,0.915 -1.848,1.726 -2.919,2.393 -1.071,0.668 -2.226,1.199 -3.426,1.6 -1.2,0.402 -2.446,0.68 -3.71,0.842 -1.261,0.163 -2.555,0.225 -3.823,0.146 v 0 l 0.051,0.349 c 0.191,-0.093 0.374,-0.19 0.557,-0.297 0.183,-0.109 0.363,-0.216 0.54,-0.375 0.162,-0.16 0.294,-0.315 0.427,-0.487 0.131,-0.174 0.249,-0.342 0.352,-0.56 h 0.001 l 0.196,-0.341 -0.466,0.112 c -0.481,0.114 -0.976,0.206 -1.458,0.249 -0.484,0.042 -0.972,0.065 -1.459,-0.002 -0.245,-0.028 -0.493,-0.064 -0.707,-0.125 -0.212,-0.059 -0.424,-0.153 -0.622,-0.277 -0.4,-0.241 -0.77,-0.599 -1.074,-0.985 v 0 l -0.21,0.263 c 0.422,0.104 0.841,0.205 1.27,0.291 0.109,0.021 0.214,0.042 0.336,0.056 0.133,0.014 0.258,-0.002 0.37,-0.019 0.228,-0.037 0.44,-0.092 0.656,-0.159 h 10e-4 l 0.307,-0.083 -0.244,-0.235 c -0.381,-0.367 -0.749,-0.76 -1.11,-1.152 -0.363,-0.392 -0.715,-0.793 -1.057,-1.201 -0.692,-0.809 -1.335,-1.658 -1.942,-2.523 -1.202,-1.745 -2.212,-3.586 -2.795,-5.59 -0.638,-2.014 -1.086,-4.075 -1.218,-6.147 -0.068,-1.038 -0.034,-2.076 0.04,-3.126 0.038,-0.525 0.089,-1.054 0.14,-1.591 0.053,-0.54 0.092,-1.077 0.161,-1.58 0.136,-1.029 0.357,-2.044 0.665,-3.03 0.305,-0.988 0.702,-1.945 1.193,-2.852 0.984,-1.81 2.33,-3.435 3.981,-4.677 0.825,-0.615 1.719,-1.149 2.668,-1.518 0.954,-0.356 1.99,-0.579 3.027,-0.731 2.08,-0.28 4.24,-0.236 6.325,0.129 v 0 l 0.102,0.034 0.09,-0.098 c 0.596,-0.655 1.184,-1.318 1.77,-1.979 0.584,-0.663 1.165,-1.331 1.759,-1.968 0.295,-0.325 0.592,-0.6 0.932,-0.884 l 1.005,-0.852 c 0.672,-0.571 1.344,-1.148 1.983,-1.767 v 0 l 0.08,-0.061 -0.008,-0.1 -0.346,-4.488 -0.028,-0.373 -0.281,0.251 h -0.001 c -0.379,0.292 -0.826,0.547 -1.274,0.755 -0.454,0.207 -0.925,0.374 -1.405,0.503 -0.96,0.257 -1.967,0.327 -2.948,0.266 -0.453,-0.041 -0.946,-0.186 -1.419,-0.336 -0.478,-0.155 -0.95,-0.337 -1.418,-0.528 -0.935,-0.384 -1.864,-0.795 -2.757,-1.27 -0.445,-0.238 -0.88,-0.495 -1.293,-0.778 -0.206,-0.142 -0.407,-0.29 -0.593,-0.452 -0.088,-0.077 -0.198,-0.176 -0.313,-0.258 -0.111,-0.082 -0.224,-0.156 -0.337,-0.227 -0.907,-0.549 -1.863,-0.951 -2.72,-1.476 -0.106,-0.065 -0.209,-0.132 -0.305,-0.201 -0.093,-0.065 -0.192,-0.145 -0.296,-0.224 -0.197,-0.156 -0.396,-0.315 -0.59,-0.477 -0.389,-0.324 -0.767,-0.659 -1.141,-0.997 -0.749,-0.675 -1.464,-1.381 -2.145,-2.126 -0.69,-0.738 -1.335,-1.525 -1.986,-2.322 l -0.98,-1.2 c -0.326,-0.399 -0.685,-0.796 -1.007,-1.175 -0.644,-0.772 -1.256,-1.593 -1.573,-2.498 -0.152,-0.45 -0.213,-0.918 -0.113,-1.344 0.096,-0.43 0.362,-0.792 0.719,-1.111 0.714,-0.637 1.636,-1.064 2.578,-1.338 0.947,-0.274 1.948,-0.371 2.949,-0.331 2.055,0.028 4.11,0.063 6.168,0.013 0.102,-0.003 0.183,-0.087 0.18,-0.19 -0.002,-0.096 -0.077,-0.173 -0.171,-0.18 -2.052,-0.157 -4.106,-0.23 -6.16,-0.309 -2.087,-0.094 -4.328,0.393 -5.987,1.851 -0.2,0.185 -0.397,0.399 -0.557,0.641 -0.16,0.246 -0.279,0.523 -0.343,0.812 -0.13,0.583 -0.035,1.171 0.146,1.688 0.373,1.042 1.016,1.899 1.68,2.702 l 0.504,0.587 c 0.162,0.194 0.322,0.392 0.479,0.592 0.314,0.4 0.617,0.812 0.918,1.229 0.598,0.835 1.212,1.674 1.886,2.475 0.679,0.796 1.424,1.542 2.234,2.208 0.405,0.333 0.828,0.643 1.26,0.936 0.216,0.147 0.432,0.291 0.654,0.433 0.107,0.067 0.216,0.138 0.341,0.21 0.12,0.069 0.239,0.132 0.359,0.19 0.949,0.457 1.911,0.821 2.758,1.349 0.105,0.065 0.205,0.134 0.299,0.207 0.092,0.07 0.172,0.145 0.275,0.241 0.199,0.178 0.403,0.347 0.611,0.509 0.419,0.321 0.856,0.611 1.302,0.883 0.893,0.544 1.825,1.017 2.793,1.405 0.485,0.194 0.978,0.368 1.481,0.522 0.507,0.149 1.009,0.294 1.583,0.338 1.07,0.058 2.137,-0.081 3.152,-0.396 0.507,-0.155 0.999,-0.361 1.464,-0.615 0.466,-0.256 0.906,-0.538 1.309,-0.913 v 0 l -0.31,-0.122 0.346,4.487 0.072,-0.161 v 0 c -0.768,0.458 -1.493,0.971 -2.202,1.509 -0.357,0.267 -0.7,0.551 -1.044,0.84 -0.338,0.287 -0.689,0.619 -0.985,0.954 -0.6,0.672 -1.156,1.363 -1.704,2.064 -0.543,0.703 -1.071,1.416 -1.58,2.147 l 0.191,-0.065 v 0 c -1.06,-0.294 -2.132,-0.472 -3.222,-0.571 -1.088,-0.102 -2.188,-0.109 -3.285,-0.021 -1.099,0.091 -2.191,0.274 -3.272,0.622 -1.075,0.364 -2.075,0.895 -2.992,1.539 -1.836,1.288 -3.364,3.001 -4.463,4.954 -0.553,0.974 -1.005,2.005 -1.355,3.067 -0.351,1.063 -0.589,2.158 -0.744,3.26 -0.081,0.564 -0.122,1.1 -0.178,1.63 -0.054,0.534 -0.11,1.075 -0.153,1.623 -0.091,1.095 -0.101,2.214 -0.024,3.323 0.146,2.227 0.691,4.391 1.409,6.457 0.175,0.513 0.379,1.041 0.612,1.549 0.231,0.508 0.488,1.002 0.763,1.483 0.547,0.963 1.186,1.863 1.863,2.723 1.37,1.71 2.908,3.259 4.632,4.593 l 0.063,-0.318 h -10e-4 c -0.196,0.061 -0.403,0.115 -0.6,0.146 -0.101,0.016 -0.193,0.025 -0.275,0.017 -0.093,-0.011 -0.199,-0.031 -0.302,-0.051 -0.416,-0.084 -0.836,-0.185 -1.252,-0.287 l -0.396,-0.097 0.186,0.361 0.001,0.001 c 0.21,0.535 0.545,0.998 1,1.377 0.229,0.186 0.49,0.341 0.778,0.453 0.288,0.103 0.562,0.159 0.839,0.209 0.558,0.082 1.137,0.104 1.698,-0.013 0.279,-0.057 0.552,-0.145 0.811,-0.265 0.261,-0.121 0.5,-0.265 0.722,-0.478 l -0.27,-0.229 v 0 c -0.073,0.154 -0.189,0.328 -0.306,0.481 -0.118,0.154 -0.256,0.312 -0.385,0.441 -0.13,0.117 -0.304,0.226 -0.474,0.326 -0.173,0.1 -0.353,0.196 -0.532,0.284 l -0.531,0.26 0.582,0.089 v 0 c 1.309,0.26 2.631,0.291 3.953,0.206 1.321,-0.096 2.635,-0.339 3.905,-0.742 2.541,-0.8 4.885,-2.271 6.694,-4.236 0.903,-0.981 1.686,-2.067 2.336,-3.222 0.65,-1.157 1.176,-2.375 1.595,-3.625 C -0.516,6.507 -0.204,5.225 0.002,3.929 0.212,2.634 0.336,1.327 0.37,0.023 V 0.021 C 0.372,-0.081 0.292,-0.166 0.189,-0.169 0.091,-0.171 0.009,-0.096 0,0" /></g><g
           transform="translate(41.7715,138.2839)"
           id="g250"><path
             id="path252"
             style="fill:#000000;fill-opacity:1;fill-rule:nonzero;stroke:none"
             d="m 0,0 c 1.655,-1.01 3.156,-2.227 4.547,-3.569 1.39,-1.34 2.649,-2.827 3.708,-4.454 1.069,-1.619 1.893,-3.412 2.477,-5.254 0.574,-1.85 0.976,-3.744 1.095,-5.682 l 0.033,-0.546 -0.348,0.4 h -0.001 c -0.526,0.454 -1.129,0.848 -1.751,1.156 -0.626,0.304 -1.297,0.506 -1.966,0.527 -0.332,0.009 -0.669,-0.032 -0.977,-0.127 -0.273,-0.09 -0.541,-0.29 -0.777,-0.519 -0.474,-0.468 -0.867,-1.069 -1.219,-1.669 l -0.191,0.255 h 0.001 c 0.631,0.198 1.278,0.247 1.934,0.207 0.328,-0.022 0.656,-0.077 0.984,-0.163 0.327,-0.087 0.659,-0.201 0.97,-0.395 0.578,-0.357 1.071,-0.834 1.45,-1.382 0.188,-0.275 0.351,-0.564 0.481,-0.867 0.131,-0.305 0.232,-0.609 0.292,-0.948 l 0.08,-0.459 -0.347,0.251 v 0 c -0.444,0.118 -0.9,0.225 -1.343,0.299 -0.446,0.07 -0.889,0.111 -1.321,0.09 -0.054,-0.002 -0.108,-0.005 -0.161,-0.01 l -0.073,-0.006 -0.089,-0.011 c -0.06,-0.008 -0.095,-0.016 -0.146,-0.025 -0.05,-0.012 -0.101,-0.018 -0.151,-0.032 -0.199,-0.047 -0.39,-0.123 -0.575,-0.217 -0.365,-0.188 -0.71,-0.486 -0.977,-0.821 v 0 l -0.208,0.257 c 0.476,0.208 0.977,0.224 1.476,0.141 0.497,-0.092 0.973,-0.312 1.372,-0.618 0.203,-0.155 0.378,-0.323 0.548,-0.52 0.17,-0.202 0.307,-0.43 0.405,-0.658 0.198,-0.462 0.291,-0.933 0.261,-1.426 v 0 l 0.023,-0.107 -0.086,-0.071 c -0.706,-0.579 -1.489,-1.006 -2.321,-1.343 -0.831,-0.333 -1.711,-0.555 -2.607,-0.651 -1.8,-0.188 -3.634,0.162 -5.277,0.93 -0.821,0.393 -1.586,0.909 -2.255,1.526 -0.67,0.616 -1.252,1.32 -1.75,2.073 -0.998,1.51 -1.654,3.205 -2.081,4.94 -0.104,0.435 -0.195,0.873 -0.263,1.32 -0.017,0.112 -0.033,0.224 -0.046,0.339 l -0.01,0.09 -0.007,0.094 -0.011,0.163 c -0.013,0.225 -0.024,0.449 -0.029,0.672 -0.024,0.894 0.017,1.79 0.125,2.678 0.22,1.775 0.708,3.515 1.432,5.142 1.464,3.251 3.723,6.104 6.559,8.231 0.082,0.061 0.198,0.044 0.259,-0.037 0.059,-0.079 0.046,-0.19 -0.029,-0.253 L 1.108,-1.068 c -1.313,-1.102 -2.494,-2.394 -3.513,-3.779 -1.029,-1.38 -1.897,-2.877 -2.55,-4.46 -0.655,-1.58 -1.103,-3.243 -1.293,-4.937 -0.098,-0.846 -0.133,-1.699 -0.106,-2.551 0.006,-0.213 0.017,-0.425 0.031,-0.636 l 0.012,-0.163 0.005,-0.07 0.008,-0.073 c 0.012,-0.101 0.027,-0.205 0.043,-0.309 0.064,-0.416 0.147,-0.834 0.245,-1.248 0.395,-1.656 1.028,-3.262 1.934,-4.685 0.907,-1.418 2.137,-2.629 3.631,-3.389 1.497,-0.749 3.211,-1.116 4.894,-0.994 1.681,0.11 3.365,0.701 4.743,1.674 l -0.063,-0.177 v 0 c -0.222,0.376 -0.432,0.752 -0.662,1.071 -0.117,0.161 -0.232,0.304 -0.364,0.43 -0.132,0.13 -0.284,0.266 -0.434,0.383 -0.303,0.239 -0.632,0.435 -0.994,0.585 -0.356,0.154 -0.763,0.258 -1.166,0.32 l -0.348,0.054 0.14,0.203 v 0 c 0.166,0.518 0.501,0.944 0.945,1.262 0.22,0.16 0.471,0.28 0.731,0.365 0.065,0.022 0.13,0.041 0.197,0.057 0.066,0.014 0.148,0.031 0.206,0.04 l 0.088,0.013 c 0.049,0.008 0.07,0.009 0.106,0.013 0.066,0.008 0.131,0.012 0.196,0.017 0.525,0.027 1.041,-0.047 1.525,-0.194 0.486,-0.148 0.94,-0.356 1.353,-0.664 l 10e-4,-0.001 -0.267,-0.207 c -0.223,0.541 -0.549,1.066 -0.926,1.511 -0.38,0.448 -0.831,0.828 -1.33,1.11 -0.46,0.259 -1.052,0.365 -1.638,0.438 -0.591,0.078 -1.202,0.123 -1.818,0.209 v 0 l -0.303,-0.08 0.112,0.335 c 0.24,0.716 0.602,1.379 1.146,1.944 0.275,0.278 0.603,0.525 1.021,0.661 0.385,0.112 0.777,0.153 1.167,0.138 0.783,-0.028 1.519,-0.294 2.178,-0.647 0.331,-0.177 0.645,-0.38 0.94,-0.605 0.297,-0.227 0.577,-0.462 0.841,-0.738 l 10e-4,-0.001 -0.315,-0.146 c -0.14,0.929 -0.34,1.862 -0.569,2.779 -0.225,0.919 -0.501,1.824 -0.813,2.715 -0.31,0.89 -0.665,1.764 -1.066,2.614 -0.404,0.847 -0.858,1.668 -1.369,2.46 -1.019,1.583 -2.22,3.05 -3.536,4.409 -0.658,0.68 -1.356,1.321 -2.07,1.944 -0.714,0.621 -1.462,1.214 -2.231,1.754 l -0.007,0.004 c -0.083,0.059 -0.104,0.175 -0.045,0.258 C -0.192,0.029 -0.083,0.05 0,0" /></g><g
           transform="translate(81.4918,117.7622)"
           id="g254"><path
             id="path256"
             style="fill:#000000;fill-opacity:1;fill-rule:nonzero;stroke:none"
             d="M 0,0 C 0.153,0.381 0.284,0.78 0.389,1.176 0.49,1.572 0.563,1.979 0.547,2.359 0.538,2.547 0.499,2.727 0.42,2.859 0.338,2.993 0.232,3.072 0.064,3.12 -0.08,3.158 -0.285,3.166 -0.477,3.153 -0.673,3.14 -0.874,3.111 -1.074,3.074 -1.475,2.998 -1.876,2.891 -2.278,2.774 -2.65,2.666 -3.04,2.491 -3.419,2.324 -4.181,1.978 -4.944,1.617 -5.696,1.244 v 0 L -6.071,1.03 -6.05,1.486 c 0.058,1.293 0.081,2.597 0.052,3.887 -0.016,0.646 -0.042,1.29 -0.104,1.926 -0.06,0.634 -0.143,1.268 -0.306,1.854 -0.082,0.289 -0.183,0.571 -0.318,0.791 -0.015,0.024 -0.038,0.059 -0.047,0.071 -0.024,0.032 -0.051,0.07 -0.065,0.086 -0.032,0.04 -0.081,0.092 -0.124,0.133 -0.092,0.087 -0.195,0.163 -0.308,0.226 -0.454,0.256 -1.047,0.318 -1.632,0.25 -0.588,-0.067 -1.177,-0.259 -1.737,-0.516 -0.562,-0.256 -1.099,-0.583 -1.606,-0.955 -0.504,-0.373 -0.99,-0.789 -1.435,-1.232 -0.425,-0.429 -0.783,-0.955 -1.106,-1.5 -0.639,-1.097 -1.146,-2.292 -1.467,-3.523 -0.156,-0.614 -0.265,-1.245 -0.256,-1.862 0.018,-0.641 0.067,-1.286 0.169,-1.915 0.102,-0.629 0.264,-1.249 0.536,-1.805 0.271,-0.555 0.672,-1.038 1.206,-1.315 0.53,-0.282 1.158,-0.367 1.783,-0.349 0.628,0.018 1.261,0.13 1.885,0.279 1.249,0.305 2.473,0.749 3.687,1.215 2.429,0.941 4.814,1.998 7.253,2.964 2.442,0.96 4.957,1.751 7.516,2.347 1.278,0.301 2.566,0.558 3.86,0.781 l 0.973,0.159 c 0.335,0.05 0.668,0.086 1.003,0.11 0.67,0.047 1.344,0.047 2.019,-0.014 0.674,-0.063 1.351,-0.181 2.014,-0.427 0.33,-0.125 0.659,-0.283 0.964,-0.511 0.077,-0.059 0.147,-0.116 0.224,-0.189 0.086,-0.083 0.15,-0.164 0.21,-0.25 0.117,-0.169 0.203,-0.347 0.27,-0.526 0.26,-0.722 0.245,-1.455 0.146,-2.143 -0.105,-0.691 -0.31,-1.348 -0.562,-1.977 -0.511,-1.257 -1.205,-2.408 -1.965,-3.498 -0.379,-0.544 -0.784,-1.075 -1.193,-1.588 -0.405,-0.514 -0.817,-1.026 -1.243,-1.531 -0.85,-1.009 -1.761,-1.988 -2.764,-2.872 -1.002,-0.884 -2.091,-1.672 -3.231,-2.36 -1.141,-0.689 -2.33,-1.286 -3.541,-1.819 -0.601,-0.264 -1.221,-0.528 -1.859,-0.742 -0.634,-0.217 -1.277,-0.401 -1.923,-0.561 -2.589,-0.621 -5.246,-0.896 -7.902,-0.838 -1.329,0.036 -2.657,0.162 -3.969,0.403 -1.312,0.239 -2.61,0.601 -3.846,1.13 -1.251,0.524 -2.4,1.282 -3.395,2.184 -0.998,0.903 -1.854,1.943 -2.585,3.054 -0.725,1.116 -1.329,2.301 -1.835,3.521 -0.505,1.222 -0.919,2.472 -1.196,3.772 -0.021,0.1 0.042,0.198 0.142,0.22 0.096,0.02 0.19,-0.038 0.217,-0.131 l 0.003,-0.01 c 0.698,-2.478 1.771,-4.885 3.241,-6.985 0.732,-1.051 1.572,-2.025 2.532,-2.853 0.96,-0.828 2.039,-1.503 3.21,-1.962 2.365,-0.928 4.94,-1.308 7.501,-1.346 2.566,-0.04 5.147,0.24 7.636,0.846 0.621,0.151 1.237,0.325 1.839,0.528 0.602,0.199 1.186,0.445 1.781,0.702 1.181,0.515 2.334,1.087 3.432,1.745 1.099,0.657 2.138,1.402 3.098,2.242 0.961,0.839 1.84,1.774 2.675,2.758 0.418,0.492 0.829,0.995 1.24,1.5 0.412,0.504 0.805,1.007 1.18,1.529 0.746,1.041 1.421,2.135 1.909,3.294 0.241,0.579 0.433,1.176 0.532,1.776 0.097,0.596 0.1,1.212 -0.081,1.728 -0.045,0.127 -0.103,0.246 -0.17,0.346 -0.033,0.049 -0.071,0.096 -0.102,0.127 -0.041,0.04 -0.096,0.087 -0.149,0.128 -0.217,0.167 -0.479,0.302 -0.757,0.411 -0.56,0.217 -1.18,0.337 -1.804,0.403 C 14.68,2.872 14.044,2.881 13.411,2.845 13.095,2.827 12.777,2.797 12.465,2.755 L 11.503,2.611 C 10.22,2.408 8.942,2.171 7.674,1.891 5.138,1.333 2.642,0.597 0.215,-0.335 c -2.424,-0.942 -4.824,-1.986 -7.273,-2.917 -1.227,-0.461 -2.467,-0.903 -3.759,-1.209 -0.646,-0.15 -1.308,-0.264 -1.986,-0.28 -0.674,-0.014 -1.386,0.079 -2.015,0.417 -0.632,0.331 -1.109,0.902 -1.409,1.516 -0.305,0.617 -0.475,1.276 -0.596,1.931 -0.119,0.659 -0.178,1.319 -0.212,1.981 -0.03,0.691 0.069,1.363 0.213,2.017 0.299,1.307 0.784,2.555 1.421,3.735 0.325,0.587 0.686,1.164 1.165,1.681 0.467,0.492 0.956,0.95 1.496,1.362 1.074,0.813 2.311,1.498 3.735,1.684 0.702,0.085 1.48,0.036 2.172,-0.358 0.171,-0.097 0.333,-0.217 0.477,-0.356 0.074,-0.072 0.138,-0.14 0.207,-0.227 0.038,-0.047 0.058,-0.076 0.083,-0.11 0.038,-0.054 0.059,-0.088 0.087,-0.133 0.203,-0.341 0.316,-0.683 0.405,-1.022 C -5.247,8.022 -5.234,6.695 -5.25,5.374 -5.265,4.714 -5.298,4.056 -5.354,3.4 -5.408,2.744 -5.47,2.092 -5.564,1.437 l -0.354,0.242 v 0 c 0.755,0.389 1.509,0.77 2.286,1.118 0.392,0.172 0.773,0.348 1.212,0.478 0.411,0.113 0.827,0.22 1.257,0.295 0.215,0.037 0.433,0.066 0.658,0.078 0.229,0.009 0.452,0.01 0.716,-0.063 C 0.324,3.553 0.459,3.49 0.567,3.406 0.676,3.32 0.768,3.21 0.831,3.092 0.96,2.855 0.994,2.606 1,2.374 1.007,1.908 0.897,1.479 0.765,1.066 0.632,0.652 0.463,0.259 0.261,-0.125 0.224,-0.196 0.136,-0.223 0.066,-0.186 c -0.067,0.034 -0.095,0.113 -0.068,0.181 z" /></g><g
           transform="translate(64.2746,127.2042)"
           id="g258"><path
             id="path260"
             style="fill:#000000;fill-opacity:1;fill-rule:nonzero;stroke:none"
             d="M 0,0 C 0.497,0.577 1.032,1.107 1.586,1.625 2.139,2.143 2.725,2.626 3.342,3.076 3.959,3.524 4.607,3.94 5.308,4.281 6.006,4.607 6.717,4.885 7.46,5.105 8.202,5.322 8.975,5.47 9.773,5.487 c 0.792,0.016 1.636,-0.115 2.372,-0.56 0.048,-0.03 0.084,-0.052 0.141,-0.091 0.027,-0.019 0.106,-0.078 0.143,-0.113 0.09,-0.082 0.168,-0.168 0.238,-0.257 0.138,-0.178 0.242,-0.363 0.332,-0.549 0.18,-0.372 0.297,-0.75 0.39,-1.129 0.183,-0.757 0.281,-1.514 0.34,-2.273 0.059,-0.759 0.059,-1.523 0.019,-2.279 l -0.071,-1.125 c -0.022,-0.37 -0.047,-0.743 0.012,-1.079 0.029,-0.166 0.085,-0.317 0.18,-0.438 0.048,-0.06 0.105,-0.114 0.17,-0.162 0.06,-0.044 0.15,-0.098 0.202,-0.111 0.273,-0.088 0.634,0.06 0.955,0.219 0.329,0.161 0.655,0.35 0.992,0.525 0.338,0.174 0.689,0.333 1.058,0.455 0.738,0.239 1.545,0.352 2.345,0.133 0.394,-0.114 0.777,-0.336 1.054,-0.661 0.276,-0.325 0.441,-0.726 0.503,-1.131 0.062,-0.406 0.037,-0.82 -0.095,-1.216 -0.034,-0.099 -0.076,-0.197 -0.132,-0.291 -0.054,-0.097 -0.131,-0.187 -0.187,-0.253 l -0.364,-0.43 c -0.485,-0.572 -0.98,-1.134 -1.486,-1.689 -0.033,-0.036 -0.09,-0.039 -0.127,-0.005 -0.034,0.031 -0.039,0.082 -0.012,0.119 0.438,0.608 0.885,1.21 1.338,1.806 l 0.336,0.448 c 0.06,0.082 0.102,0.136 0.136,0.206 0.035,0.07 0.065,0.146 0.09,0.224 0.098,0.317 0.111,0.673 0.051,1.004 -0.061,0.333 -0.203,0.645 -0.42,0.887 -0.215,0.243 -0.503,0.416 -0.826,0.512 -0.323,0.102 -0.673,0.126 -1.029,0.117 -0.354,-0.011 -0.708,-0.071 -1.055,-0.168 -0.698,-0.195 -1.348,-0.546 -2.031,-0.883 -0.173,-0.08 -0.351,-0.159 -0.547,-0.217 -0.192,-0.055 -0.419,-0.089 -0.646,-0.017 -0.026,0.008 -0.057,0.021 -0.086,0.033 l -0.07,0.036 c -0.046,0.024 -0.091,0.052 -0.135,0.081 -0.088,0.061 -0.171,0.134 -0.242,0.219 -0.143,0.171 -0.222,0.381 -0.263,0.581 -0.078,0.403 -0.06,0.785 -0.058,1.162 0.007,0.377 0.021,0.748 0.017,1.12 -0.006,0.742 -0.052,1.478 -0.154,2.207 -0.1,0.73 -0.236,1.457 -0.446,2.146 -0.108,0.342 -0.23,0.678 -0.385,0.977 -0.078,0.148 -0.165,0.287 -0.261,0.402 -0.048,0.057 -0.098,0.108 -0.149,0.15 -0.033,0.027 -0.028,0.025 -0.078,0.059 l -0.095,0.06 C 11.178,4.577 10.482,4.689 9.786,4.682 9.084,4.673 8.373,4.537 7.676,4.347 6.978,4.156 6.286,3.897 5.619,3.607 4.96,3.319 4.326,2.949 3.715,2.541 2.5,1.716 1.344,0.768 0.271,-0.252 L 0.268,-0.255 C 0.194,-0.326 0.077,-0.323 0.006,-0.249 -0.06,-0.179 -0.061,-0.071 0,0" /></g><g
           transform="translate(60.0074,129.9116)"
           id="g262"><path
             id="path264"
             style="fill:#000000;fill-opacity:1;fill-rule:nonzero;stroke:none"
             d="M 0,0 H 1.951 L 1.768,-0.156 v 0.001 C 1.783,0.109 1.766,0.397 1.727,0.666 1.684,0.937 1.615,1.201 1.512,1.447 1.402,1.703 1.267,1.965 1.148,2.229 1.026,2.493 0.911,2.762 0.811,3.038 L 0.67,3.429 1.023,3.302 H 1.024 C 1.355,3.242 1.646,3.126 1.927,2.967 2.205,2.809 2.463,2.61 2.686,2.375 2.796,2.257 2.902,2.136 2.994,2 3.084,1.87 3.166,1.74 3.243,1.609 3.398,1.346 3.537,1.078 3.664,0.801 L 3.334,0.779 3.335,0.78 C 3.431,1.051 3.551,1.295 3.686,1.539 3.823,1.782 3.97,2.02 4.144,2.242 4.486,2.688 4.909,3.094 5.428,3.383 5.935,3.654 6.444,3.848 6.967,4.019 7.487,4.187 8.007,4.364 8.588,4.276 L 9.313,4.165 8.748,3.955 v 0 C 8.503,3.741 8.256,3.532 8.004,3.325 7.758,3.121 7.486,2.912 7.233,2.73 7.01,2.553 6.822,2.306 6.679,2.041 6.536,1.776 6.424,1.475 6.362,1.189 v 0 L 6.13,1.402 C 6.482,1.533 6.836,1.652 7.198,1.757 7.379,1.811 7.561,1.858 7.752,1.901 7.8,1.912 7.848,1.922 7.9,1.931 L 8.048,1.952 8.334,1.984 C 8.716,2.019 9.101,2.033 9.484,2.01 9.868,1.983 10.245,1.924 10.618,1.775 10.714,1.737 10.761,1.627 10.723,1.531 10.694,1.46 10.627,1.416 10.555,1.413 H 10.542 C 10.184,1.4 9.818,1.408 9.46,1.412 9.1,1.419 8.739,1.42 8.38,1.397 8.2,1.386 8.021,1.375 7.855,1.349 7.681,1.323 7.5,1.286 7.32,1.252 L 6.23,1.045 5.929,0.988 5.998,1.258 v 0 c 0.075,0.345 0.193,0.655 0.355,0.959 0.164,0.3 0.371,0.581 0.654,0.807 0.272,0.196 0.511,0.38 0.763,0.588 0.247,0.203 0.493,0.411 0.734,0.622 v 0 L 8.664,3.913 C 8.433,3.754 8.187,3.649 7.939,3.561 7.69,3.475 7.435,3.414 7.187,3.332 6.692,3.174 6.191,2.999 5.744,2.783 5.314,2.572 4.925,2.248 4.58,1.876 4.235,1.506 3.927,1.074 3.675,0.634 V 0.633 L 3.624,0.248 3.345,0.612 C 3.164,0.848 2.988,1.09 2.816,1.329 2.729,1.448 2.643,1.567 2.557,1.679 2.473,1.786 2.383,1.891 2.286,1.99 2.093,2.186 1.879,2.365 1.65,2.523 1.422,2.679 1.17,2.83 0.928,2.944 v 0 L 1.14,3.208 C 1.308,2.963 1.457,2.709 1.594,2.448 1.731,2.185 1.854,1.92 1.97,1.636 2.09,1.34 2.158,1.028 2.182,0.718 2.208,0.405 2.196,0.103 2.134,-0.214 V -0.215 L 2.109,-0.37 H 1.951 0 c -0.102,0 -0.185,0.083 -0.185,0.185 C -0.185,-0.083 -0.102,0 0,0" /></g><g
           transform="translate(66.4364,133.4299)"
           id="g266"><path
             id="path268"
             style="fill:#000000;fill-opacity:1;fill-rule:nonzero;stroke:none"
             d="M 0,0 C -0.016,0.672 -0.003,1.344 -0.006,2.016 L -0.004,4.032 0,8.064 v 0.164 l 0.162,0.02 H 0.163 C 0.504,8.296 0.787,8.255 1.086,8.197 1.378,8.133 1.662,8.043 1.934,7.93 2.481,7.706 2.987,7.406 3.463,7.073 4.409,6.394 5.233,5.58 5.972,4.706 6.34,4.273 6.697,3.825 7.029,3.36 7.365,2.897 7.678,2.417 7.965,1.921 8.254,1.426 8.512,0.912 8.735,0.381 8.952,-0.156 9.144,-0.69 9.231,-1.29 9.246,-1.391 9.176,-1.485 9.075,-1.5 8.984,-1.513 8.899,-1.458 8.872,-1.373 L 8.866,-1.354 C 8.71,-0.857 8.466,-0.346 8.211,0.134 7.954,0.619 7.664,1.087 7.361,1.546 6.75,2.463 6.069,3.332 5.345,4.17 4.619,4.996 3.856,5.791 3.008,6.467 2.586,6.808 2.141,7.116 1.672,7.373 1.436,7.499 1.196,7.615 0.947,7.704 0.823,7.75 0.698,7.789 0.571,7.82 0.45,7.851 0.308,7.876 0.208,7.881 H 0.209 L 0.37,8.064 0.374,4.032 0.376,2.016 C 0.374,1.344 0.386,0.672 0.37,0 0.368,-0.102 0.283,-0.183 0.181,-0.181 0.082,-0.179 0.002,-0.098 0,0" /></g><g
           transform="translate(77.8906,126.1416)"
           id="g270"><path
             id="path272"
             style="fill:#000000;fill-opacity:1;fill-rule:nonzero;stroke:none"
             d="M 0,0 C 0.329,-0.134 0.628,-0.301 0.914,-0.499 1.201,-0.696 1.468,-0.922 1.713,-1.176 1.984,-1.474 2.131,-1.777 2.286,-2.086 2.435,-2.395 2.558,-2.709 2.662,-3.036 2.693,-3.134 2.639,-3.239 2.541,-3.27 2.456,-3.297 2.367,-3.261 2.324,-3.188 L 2.323,-3.186 1.82,-2.335 c -0.168,0.275 -0.336,0.571 -0.521,0.766 -0.216,0.23 -0.454,0.444 -0.701,0.65 -0.248,0.203 -0.509,0.407 -0.768,0.59 l -0.007,0.005 c -0.084,0.059 -0.104,0.175 -0.045,0.259 C -0.171,0.007 -0.078,0.032 0,0" /></g><g
           transform="translate(62.1883,113.3694)"
           id="g274"><path
             id="path276"
             style="fill:#000000;fill-opacity:1;fill-rule:nonzero;stroke:none"
             d="m 0,0 h -6.157 c -0.102,0 -0.185,0.083 -0.185,0.185 0,0.102 0.083,0.185 0.185,0.185 H 0 C 0.102,0.37 0.185,0.287 0.185,0.185 0.185,0.083 0.102,0 0,0" /></g><g
           transform="translate(77.812,99.8359)"
           id="g278"><path
             id="path280"
             style="fill:#000000;fill-opacity:1;fill-rule:nonzero;stroke:none"
             d="m 0,0 c -1.098,-0.579 -2.221,-1.093 -3.381,-1.535 -1.157,-0.444 -2.352,-0.816 -3.594,-1.016 -1.258,-0.188 -2.505,-0.14 -3.742,-0.052 -1.237,0.108 -2.46,0.281 -3.674,0.544 -0.1,0.022 -0.164,0.12 -0.142,0.22 0.021,0.096 0.112,0.158 0.207,0.144 l 0.005,-10e-4 c 1.206,-0.177 2.426,-0.317 3.641,-0.391 1.214,-0.081 2.441,-0.092 3.622,0.066 1.19,0.179 2.356,0.545 3.506,0.948 1.145,0.415 2.282,0.88 3.383,1.402 l 0.003,0.002 C -0.073,0.375 0.037,0.335 0.081,0.243 0.124,0.153 0.087,0.046 0,0" /></g><g
           transform="translate(108.5159,105.0887)"
           id="g282"><path
             id="path284"
             style="fill:#000000;fill-opacity:1;fill-rule:nonzero;stroke:none"
             d="m 0,0 c -0.136,-0.494 -0.26,-1.003 -0.329,-1.507 -0.072,-0.5 -0.109,-1.019 -0.01,-1.455 0.026,-0.107 0.062,-0.206 0.108,-0.286 0.049,-0.085 0.089,-0.124 0.195,-0.228 0.172,-0.169 0.366,-0.331 0.564,-0.476 0.4,-0.29 0.835,-0.535 1.295,-0.698 0.457,-0.165 0.939,-0.258 1.4,-0.221 0.462,0.027 0.89,0.201 1.222,0.508 0.167,0.153 0.309,0.338 0.425,0.544 0.03,0.052 0.058,0.104 0.084,0.158 l 0.02,0.04 c 0.002,0.003 0.01,0.023 0.006,0.011 l 0.009,0.021 c -0.002,-0.01 0.007,0.018 0.009,0.035 0.016,0.083 0.015,0.205 0.005,0.323 -0.036,0.489 -0.166,1.004 -0.287,1.505 L 4.715,-1.723 4.706,-1.7 4.705,-1.662 4.624,0.834 C 4.611,1.252 4.598,1.665 4.565,2.063 4.53,2.461 4.47,2.862 4.341,3.194 4.277,3.356 4.186,3.498 4.104,3.548 L 4.09,3.557 C 4.1,3.551 4.073,3.567 4.067,3.57 4.045,3.582 4.018,3.599 4.002,3.606 3.97,3.621 3.935,3.637 3.894,3.654 3.815,3.685 3.732,3.712 3.645,3.733 3.297,3.815 2.911,3.819 2.526,3.777 1.753,3.693 0.976,3.458 0.237,3.148 -0.502,2.834 -1.217,2.452 -1.867,1.99 -2.192,1.759 -2.5,1.508 -2.778,1.236 -2.919,1.101 -3.05,0.96 -3.171,0.814 -3.284,0.677 -3.384,0.521 -3.486,0.349 -3.888,-0.334 -4.24,-1.089 -4.589,-1.835 L -5.637,-4.094 -5.638,-4.099 -5.67,-4.203 -5.796,-4.221 c -0.778,-0.111 -1.558,-0.211 -2.337,-0.314 l -2.337,-0.297 c -1.554,-0.198 -3.124,-0.374 -4.64,-0.646 -1.515,-0.297 -3.034,-0.694 -4.532,-1.143 -1.5,-0.447 -2.989,-0.954 -4.442,-1.533 l -0.027,-0.01 -0.032,-0.005 c -1.524,-0.2 -3.043,-0.478 -4.544,-0.809 -1.501,-0.33 -2.994,-0.695 -4.451,-1.11 -1.446,-0.421 -2.907,-0.931 -4.371,-1.402 -1.467,-0.469 -2.937,-0.941 -4.435,-1.337 h -10e-4 l -0.055,-0.021 -0.058,0.015 -1.215,0.314 c -0.407,0.097 -0.811,0.21 -1.206,0.251 -0.402,0.043 -0.813,0.039 -1.222,0.009 -0.408,-0.032 -0.822,-0.088 -1.217,-0.172 v -0.001 l -0.8,-0.268 0.645,0.595 c 0.408,0.378 0.826,0.744 1.241,1.109 0.404,0.371 0.843,0.733 1.188,1.108 l 1.081,1.254 c 0.365,0.419 0.742,0.829 1.131,1.229 0.071,0.074 0.189,0.076 0.263,0.004 0.065,-0.063 0.074,-0.163 0.025,-0.236 -0.31,-0.466 -0.635,-0.919 -0.976,-1.361 -0.343,-0.441 -0.687,-0.874 -1.067,-1.3 -0.208,-0.227 -0.42,-0.412 -0.637,-0.595 -0.215,-0.183 -0.434,-0.358 -0.658,-0.527 -0.443,-0.342 -0.895,-0.67 -1.364,-0.977 l -0.155,0.327 H -47 c 0.425,0.09 0.843,0.147 1.271,0.18 0.427,0.032 0.858,0.036 1.29,-0.01 0.441,-0.047 0.847,-0.163 1.255,-0.26 l 1.221,-0.315 -0.114,-0.006 v 0 c 1.387,0.702 2.811,1.306 4.248,1.882 0.721,0.281 1.443,0.561 2.177,0.813 0.73,0.26 1.475,0.501 2.238,0.705 1.523,0.394 3.062,0.628 4.6,0.832 1.54,0.196 3.075,0.372 4.616,0.548 l -0.059,-0.015 c 1.476,0.562 2.951,1.11 4.442,1.631 1.494,0.51 2.998,1.002 4.566,1.324 0.788,0.159 1.572,0.257 2.356,0.35 0.783,0.095 1.567,0.169 2.351,0.244 l 2.355,0.185 c 0.785,0.052 1.57,0.1 2.358,0.131 l -0.158,-0.122 0.002,0.005 c 0.215,0.812 0.479,1.606 0.767,2.395 0.298,0.787 0.61,1.564 1.033,2.329 0.45,0.819 1.145,1.401 1.846,1.902 0.712,0.496 1.473,0.908 2.274,1.227 C 0.737,4.199 1.574,4.449 2.461,4.518 2.904,4.548 3.363,4.534 3.824,4.407 3.938,4.376 4.053,4.334 4.165,4.284 4.219,4.26 4.278,4.231 4.338,4.197 4.369,4.181 4.385,4.17 4.409,4.155 L 4.453,4.128 4.502,4.093 C 4.76,3.893 4.867,3.646 4.951,3.423 5.107,2.97 5.145,2.535 5.17,2.104 5.192,1.671 5.171,1.251 5.162,0.836 5.138,0.002 5.115,-0.831 5.076,-1.664 l -0.01,0.06 0.002,-0.004 C 5.17,-1.859 5.26,-2.109 5.339,-2.367 5.418,-2.625 5.491,-2.886 5.539,-3.167 5.559,-3.31 5.578,-3.452 5.561,-3.631 5.555,-3.68 5.551,-3.716 5.528,-3.788 L 5.519,-3.814 5.506,-3.848 5.486,-3.898 C 5.459,-3.965 5.429,-4.031 5.398,-4.096 5.271,-4.357 5.101,-4.604 4.891,-4.82 4.472,-5.259 3.869,-5.51 3.282,-5.563 2.691,-5.614 2.113,-5.507 1.582,-5.314 1.051,-5.117 0.558,-4.841 0.116,-4.5 c -0.222,0.173 -0.428,0.356 -0.626,0.561 -0.081,0.08 -0.225,0.236 -0.294,0.388 -0.077,0.153 -0.121,0.308 -0.15,0.458 -0.105,0.603 -0.01,1.153 0.103,1.684 0.129,0.53 0.288,1.039 0.504,1.537 0.04,0.094 0.15,0.138 0.244,0.097 0.085,-0.037 0.129,-0.132 0.105,-0.219 z" /></g><g
           transform="translate(105.7406,95.0834)"
           id="g286"><path
             id="path288"
             style="fill:#000000;fill-opacity:1;fill-rule:nonzero;stroke:none"
             d="M 0,0 C -0.394,0.012 -0.796,0.098 -1.175,0.239 -1.268,0.273 -1.372,0.315 -1.479,0.381 -1.58,0.442 -1.674,0.517 -1.756,0.6 c -0.166,0.167 -0.285,0.365 -0.368,0.567 -0.171,0.405 -0.207,0.824 -0.209,1.228 0.001,0.406 0.052,0.798 0.147,1.195 0.024,0.099 0.124,0.16 0.223,0.137 0.093,-0.023 0.153,-0.11 0.141,-0.203 L -1.823,3.516 C -1.867,3.153 -1.878,2.771 -1.861,2.406 -1.841,2.041 -1.776,1.68 -1.645,1.372 -1.578,1.219 -1.49,1.083 -1.381,0.978 -1.326,0.925 -1.267,0.879 -1.202,0.842 -1.144,0.807 -1.068,0.777 -0.981,0.741 -0.64,0.605 -0.292,0.494 0.072,0.363 0.169,0.328 0.22,0.221 0.185,0.124 0.156,0.046 0.082,-0.002 0.003,0 Z" /></g><g
           transform="translate(113.5981,103.1472)"
           id="g290"><path
             id="path292"
             style="fill:#000000;fill-opacity:1;fill-rule:nonzero;stroke:none"
             d="m 0,0 c 0.123,-0.017 0.286,-0.056 0.419,-0.104 0.139,-0.05 0.273,-0.116 0.4,-0.192 0.253,-0.156 0.479,-0.355 0.666,-0.579 0.38,-0.448 0.627,-0.972 0.816,-1.498 0.084,-0.272 0.177,-0.505 0.215,-0.86 C 2.551,-3.554 2.512,-3.87 2.435,-4.164 2.282,-4.755 1.989,-5.267 1.647,-5.72 1.306,-6.175 0.911,-6.579 0.47,-6.929 0.249,-7.105 0.018,-7.269 -0.231,-7.415 c -0.126,-0.071 -0.255,-0.138 -0.393,-0.198 -0.138,-0.062 -0.289,-0.111 -0.424,-0.148 -0.539,-0.149 -1.07,-0.232 -1.606,-0.3 -0.536,-0.064 -1.073,-0.101 -1.611,-0.101 -0.102,0 -0.185,0.083 -0.185,0.186 0,0.091 0.065,0.166 0.151,0.183 1.03,0.196 2.069,0.415 3.027,0.743 0.119,0.042 0.218,0.082 0.319,0.135 0.101,0.053 0.203,0.115 0.304,0.182 0.201,0.133 0.399,0.282 0.586,0.445 0.372,0.328 0.717,0.694 1.008,1.089 0.286,0.397 0.526,0.824 0.649,1.259 0.059,0.217 0.089,0.434 0.08,0.642 -10e-4,0.175 -0.078,0.451 -0.14,0.686 -0.26,0.954 -0.701,1.892 -1.635,2.256 -0.096,0.037 -0.144,0.145 -0.106,0.24 0.032,0.082 0.115,0.129 0.198,0.117 z" /></g><g
           transform="translate(112.9196,98.3202)"
           id="g294"><path
             id="path296"
             style="fill:#000000;fill-opacity:1;fill-rule:nonzero;stroke:none"
             d="m 0,0 c -0.385,-0.311 -0.796,-0.492 -1.227,-0.653 -0.43,-0.157 -0.877,-0.257 -1.326,-0.323 -0.449,-0.065 -0.902,-0.096 -1.354,-0.096 -0.228,0.001 -0.448,0.01 -0.68,0.027 -0.235,0.018 -0.479,0.062 -0.713,0.139 -0.468,0.149 -0.914,0.457 -1.193,0.889 -0.279,0.427 -0.409,0.944 -0.34,1.459 0.037,0.254 0.12,0.494 0.229,0.713 0.114,0.217 0.252,0.415 0.404,0.595 0.302,0.361 0.664,0.652 1.046,0.895 0.087,0.056 0.202,0.03 0.257,-0.056 0.049,-0.079 0.033,-0.18 -0.034,-0.24 H -4.932 C -5.254,3.066 -5.551,2.761 -5.794,2.43 -6.032,2.099 -6.207,1.733 -6.248,1.367 -6.293,1.008 -6.189,0.619 -5.994,0.308 c 0.198,-0.313 0.512,-0.541 0.878,-0.665 0.184,-0.062 0.376,-0.1 0.579,-0.118 0.207,-0.019 0.426,-0.029 0.639,-0.035 0.428,-0.015 0.856,-0.001 1.279,0.045 0.424,0.047 0.843,0.128 1.249,0.246 0.4,0.119 0.811,0.287 1.134,0.504 l 0.017,0.012 C -0.135,0.354 -0.02,0.331 0.037,0.247 0.091,0.167 0.073,0.06 0,0" /></g><g
           transform="translate(113.3843,106.4144)"
           id="g298"><path
             id="path300"
             style="fill:#000000;fill-opacity:1;fill-rule:nonzero;stroke:none"
             d="M 0,0 C 0.359,0.148 0.725,0.185 1.101,0.178 1.475,0.164 1.853,0.079 2.21,-0.076 2.566,-0.227 2.912,-0.446 3.193,-0.739 3.476,-1.03 3.679,-1.393 3.8,-1.768 3.924,-2.144 3.964,-2.533 3.949,-2.912 3.929,-3.295 3.878,-3.656 3.707,-4.041 3.521,-4.423 3.257,-4.685 2.987,-4.929 2.712,-5.168 2.424,-5.371 2.108,-5.552 2.02,-5.603 1.906,-5.572 1.855,-5.483 1.81,-5.404 1.829,-5.305 1.898,-5.248 l 0.006,0.005 c 0.253,0.209 0.502,0.443 0.719,0.684 0.217,0.24 0.414,0.509 0.509,0.76 l 0.014,0.042 0.019,0.062 0.022,0.1 c 0.015,0.074 0.027,0.15 0.036,0.227 0.019,0.153 0.027,0.309 0.023,0.464 -0.008,0.31 -0.061,0.613 -0.162,0.89 -0.202,0.556 -0.625,0.971 -1.185,1.195 -0.56,0.217 -1.191,0.317 -1.85,0.452 l -0.014,0.003 c -0.104,0.021 -0.17,0.122 -0.149,0.226 C -0.101,-0.074 -0.056,-0.024 0,0" /></g><g
           transform="translate(112.4188,109.2672)"
           id="g302"><path
             id="path304"
             style="fill:#000000;fill-opacity:1;fill-rule:nonzero;stroke:none"
             d="M 0,0 C 0.432,0.13 0.86,0.208 1.298,0.27 1.734,0.333 2.176,0.359 2.62,0.357 2.842,0.356 3.064,0.348 3.287,0.33 3.511,0.309 3.723,0.295 3.971,0.239 4.441,0.118 4.86,-0.101 5.235,-0.392 5.606,-0.684 5.932,-1.064 6.12,-1.532 6.212,-1.764 6.268,-2.016 6.271,-2.268 6.274,-2.503 6.263,-2.732 6.23,-2.962 6.166,-3.419 6.024,-3.895 5.715,-4.291 5.561,-4.487 5.366,-4.657 5.141,-4.769 4.912,-4.882 4.684,-4.951 4.409,-4.941 4.307,-4.937 4.228,-4.852 4.231,-4.75 c 0.003,0.087 0.067,0.158 0.15,0.174 l 0.03,0.006 c 0.156,0.029 0.348,0.104 0.49,0.208 0.147,0.106 0.272,0.238 0.37,0.392 0.197,0.308 0.295,0.691 0.335,1.085 0.019,0.198 0.03,0.401 0.023,0.597 -0.007,0.179 -0.043,0.354 -0.106,0.523 -0.129,0.338 -0.374,0.643 -0.675,0.886 -0.301,0.243 -0.662,0.435 -1.026,0.534 -0.17,0.048 -0.389,0.077 -0.592,0.104 -0.207,0.026 -0.415,0.043 -0.624,0.053 -0.834,0.035 -1.691,-0.017 -2.511,-0.17 L 0.087,-0.359 c -0.1,-0.019 -0.197,0.047 -0.216,0.148 C -0.146,-0.118 -0.089,-0.027 0,0" /></g><g
           transform="translate(46.666,80.6213)"
           id="g306"><path
             id="path308"
             style="fill:#000000;fill-opacity:1;fill-rule:nonzero;stroke:none"
             d="m 0,0 c 0.351,0.248 0.717,0.449 1.111,0.619 0.392,0.166 0.808,0.308 1.265,0.343 0.111,0.01 0.237,0.01 0.34,0.006 L 3.024,0.96 C 3.234,0.953 3.451,0.94 3.671,0.906 4.11,0.843 4.565,0.691 4.953,0.432 5.342,0.174 5.658,-0.171 5.909,-0.538 6.162,-0.909 6.35,-1.295 6.509,-1.709 6.814,-2.538 6.928,-3.415 6.851,-4.294 6.81,-4.733 6.719,-5.175 6.532,-5.603 6.346,-6.024 6.039,-6.452 5.566,-6.693 5.131,-6.891 4.693,-7.001 4.23,-7.019 3.77,-7.037 3.297,-6.946 2.879,-6.746 c -0.42,0.197 -0.784,0.497 -1.063,0.854 -0.141,0.181 -0.26,0.365 -0.36,0.581 -0.095,0.207 -0.16,0.416 -0.215,0.624 -0.207,0.833 -0.282,1.657 -0.289,2.494 -0.001,0.102 0.081,0.186 0.183,0.187 0.096,0 0.176,-0.072 0.186,-0.165 l 0.001,-0.008 c 0.087,-0.795 0.205,-1.609 0.449,-2.351 0.062,-0.185 0.134,-0.362 0.216,-0.526 0.076,-0.153 0.187,-0.312 0.304,-0.448 0.237,-0.277 0.533,-0.499 0.861,-0.637 0.327,-0.139 0.685,-0.193 1.041,-0.165 0.355,0.027 0.723,0.127 1.03,0.274 0.262,0.139 0.467,0.412 0.603,0.737 0.14,0.325 0.217,0.695 0.249,1.07 0.059,0.752 -0.045,1.537 -0.296,2.248 -0.27,0.708 -0.655,1.404 -1.235,1.811 C 4.258,0.041 3.925,0.175 3.557,0.246 3.373,0.282 3.182,0.306 2.983,0.325 L 2.678,0.353 C 2.577,0.363 2.499,0.368 2.405,0.366 1.671,0.353 0.894,0.047 0.2,-0.312 L 0.192,-0.316 C 0.101,-0.363 -0.011,-0.327 -0.058,-0.237 -0.101,-0.153 -0.074,-0.053 0,0" /></g><g
           transform="translate(52.1935,80.0679)"
           id="g310"><path
             id="path312"
             style="fill:#000000;fill-opacity:1;fill-rule:nonzero;stroke:none"
             d="M 0,0 C 0.288,0.099 0.576,0.185 0.871,0.26 1.167,0.334 1.461,0.408 1.791,0.429 1.876,0.434 1.961,0.436 2.065,0.421 2.156,0.405 2.215,0.393 2.3,0.374 2.455,0.339 2.606,0.296 2.757,0.244 3.058,0.139 3.354,-0.003 3.617,-0.199 4.153,-0.586 4.523,-1.181 4.702,-1.792 4.893,-2.405 4.918,-3.037 4.942,-3.627 4.987,-4.241 4.905,-4.912 4.633,-5.5 4.368,-6.09 3.916,-6.613 3.307,-6.904 3.156,-6.975 2.988,-7.031 2.822,-7.06 2.666,-7.089 2.502,-7.107 2.341,-7.112 2.018,-7.122 1.688,-7.079 1.38,-6.971 c -0.308,0.105 -0.594,0.267 -0.843,0.468 -0.251,0.205 -0.463,0.43 -0.642,0.718 -0.054,0.087 -0.028,0.201 0.059,0.254 0.084,0.052 0.193,0.03 0.249,-0.05 l 0.01,-0.014 c 0.307,-0.438 0.788,-0.8 1.304,-0.948 0.26,-0.075 0.532,-0.105 0.804,-0.09 0.137,0.008 0.27,0.026 0.407,0.055 0.128,0.025 0.243,0.068 0.361,0.126 0.468,0.236 0.836,0.678 1.056,1.172 0.223,0.502 0.293,1.052 0.247,1.625 C 4.364,-3.057 4.328,-2.484 4.173,-1.951 4.021,-1.419 3.73,-0.947 3.298,-0.625 3.085,-0.462 2.844,-0.329 2.584,-0.23 2.455,-0.18 2.32,-0.137 2.186,-0.102 2.126,-0.086 2.038,-0.066 1.984,-0.054 1.94,-0.045 1.875,-0.043 1.811,-0.044 1.268,-0.069 0.672,-0.217 0.108,-0.354 L 0.104,-0.355 C 0.005,-0.38 -0.096,-0.319 -0.12,-0.219 -0.143,-0.126 -0.089,-0.031 0,0" /></g><g
           transform="translate(56.9309,75.8359)"
           id="g314"><path
             id="path316"
             style="fill:#000000;fill-opacity:1;fill-rule:nonzero;stroke:none"
             d="m 0,0 c 0.56,-0.288 1.148,-0.547 1.746,-0.74 0.299,-0.094 0.602,-0.178 0.904,-0.208 0.307,-0.031 0.616,-0.024 0.91,0.035 0.293,0.059 0.571,0.174 0.803,0.351 0.233,0.177 0.417,0.414 0.539,0.681 0.062,0.133 0.11,0.274 0.144,0.418 C 5.084,0.683 5.093,0.805 5.088,0.948 5.077,1.226 4.997,1.507 4.877,1.77 4.64,2.298 4.278,2.785 3.827,3.173 3.376,3.56 2.845,3.858 2.271,4.034 1.699,4.21 1.074,4.308 0.477,4.278 0.178,4.259 -0.12,4.217 -0.4,4.123 -0.54,4.076 -0.676,4.018 -0.803,3.947 -0.927,3.88 -1.06,3.789 -1.141,3.709 L -1.159,3.691 C -1.232,3.619 -1.348,3.62 -1.42,3.693 -1.487,3.761 -1.49,3.868 -1.43,3.94 c 0.252,0.301 0.546,0.469 0.868,0.609 0.32,0.133 0.658,0.217 0.997,0.25 C 1.118,4.863 1.785,4.792 2.445,4.62 3.102,4.434 3.725,4.112 4.248,3.664 4.769,3.219 5.213,2.659 5.446,1.991 5.557,1.658 5.624,1.302 5.598,0.936 5.592,0.845 5.579,0.754 5.559,0.664 5.539,0.568 5.511,0.482 5.482,0.403 5.423,0.24 5.348,0.083 5.263,-0.069 5.09,-0.37 4.859,-0.644 4.574,-0.847 4.291,-1.054 3.958,-1.182 3.623,-1.242 2.951,-1.362 2.268,-1.244 1.649,-1.045 c -0.623,0.201 -1.219,0.444 -1.814,0.713 -0.093,0.042 -0.134,0.152 -0.092,0.245 0.042,0.094 0.152,0.135 0.245,0.093 0.003,-0.001 0.005,-0.003 0.008,-0.004 z" /></g><g
           transform="translate(35.4533,82.7182)"
           id="g318"><path
             id="path320"
             style="fill:#000000;fill-opacity:1;fill-rule:nonzero;stroke:none"
             d="m 0,0 c 1.02,0.214 2.043,0.385 3.078,0.51 0.517,0.066 1.037,0.11 1.56,0.14 0.524,0.027 1.051,0.041 1.586,-0.004 1.055,-0.095 2.1,-0.343 3.076,-0.757 0.976,-0.42 1.886,-0.968 2.662,-1.726 0.073,-0.071 0.074,-0.188 0.003,-0.261 -0.07,-0.072 -0.184,-0.075 -0.257,-0.008 l -0.01,0.01 c -0.36,0.327 -0.789,0.619 -1.222,0.872 -0.435,0.257 -0.89,0.48 -1.359,0.666 C 8.178,-0.186 7.187,0.051 6.18,0.13 5.183,0.212 4.151,0.124 3.131,0.029 2.62,-0.021 2.108,-0.081 1.598,-0.149 1.087,-0.213 0.575,-0.283 0.069,-0.364 H 0.067 C -0.034,-0.38 -0.129,-0.312 -0.145,-0.211 -0.161,-0.113 -0.096,-0.02 0,0" /></g><g
           transform="translate(44.375,82.49)"
           id="g322"><path
             id="path324"
             style="fill:#000000;fill-opacity:1;fill-rule:nonzero;stroke:none"
             d="m 0,0 c 0.106,0.365 0.261,0.696 0.455,1.019 0.1,0.158 0.21,0.312 0.333,0.458 0.124,0.151 0.26,0.274 0.387,0.397 0.52,0.495 1.052,0.968 1.609,1.417 C 2.864,3.355 2.98,3.343 3.045,3.263 3.104,3.189 3.098,3.083 3.033,3.017 L 3.032,3.016 C 2.783,2.763 2.529,2.514 2.274,2.267 L 1.512,1.527 C 1.386,1.4 1.26,1.281 1.154,1.161 1.045,1.037 0.944,0.904 0.851,0.763 0.66,0.487 0.492,0.179 0.349,-0.122 L 0.345,-0.131 C 0.302,-0.223 0.191,-0.263 0.099,-0.219 0.015,-0.18 -0.025,-0.086 0,0" /></g><g
           transform="translate(43.1409,69.8181)"
           id="g326"><path
             id="path328"
             style="fill:#000000;fill-opacity:1;fill-rule:nonzero;stroke:none"
             d="m 0,0 h 0.002 z m -17.184,-16.083 1.147,-1.361 2.961,2.635 0.186,1.032 0.043,0.041 L 0.845,-0.39 H 1.599 L 4.409,2.092 3.034,3.855 0.185,0.961 v -1.039 l -13.658,-13.238 -0.907,-0.043 z m 1.109,-1.891 -1.614,1.917 3.151,3.061 0.907,0.043 13.446,13.031 V 1.112 L 3.067,4.416 4.915,2.045 1.739,-0.76 H 0.996 l -13.543,-13.2 -0.188,-1.041 z" /></g><g
           transform="translate(31.8398,46.4388)"
           id="g330"><path
             id="path332"
             style="fill:#000000;fill-opacity:1;fill-rule:nonzero;stroke:none"
             d="m 0,0 1.429,-1.538 2.938,2.652 0.387,1.034 0.03,0.029 13.822,13.518 h 0.91 l 2.688,2.459 -1.337,1.498 -2.824,-2.46 L 18,15.991 4.132,2.644 2.919,2.513 Z m 1.406,-2.058 -1.939,2.088 3.297,2.839 1.203,0.129 13.669,13.156 0.043,1.212 3.221,2.806 1.824,-2.044 -3.064,-2.803 H 18.757 L 5.072,1.941 4.683,0.9 Z" /></g><g
           transform="translate(57.2975,56.5968)"
           id="g334"><path
             id="path336"
             style="fill:#000000;fill-opacity:1;fill-rule:nonzero;stroke:none"
             d="m 0,0 h 0.002 z m -17.783,-16.363 1.263,-1.373 3.019,2.775 0.216,0.73 0.035,0.034 L 0.817,-0.693 1.94,-0.476 4.659,2.121 3.314,3.538 0.507,0.932 0.161,-0.102 0.128,-0.134 -13.81,-13.466 l -1.25,-0.215 z m 1.241,-1.897 -1.756,1.91 3.061,3.015 1.252,0.215 L -0.161,0.102 0.185,1.14 3.331,4.059 5.181,2.108 2.117,-0.819 0.995,-1.036 -12.958,-14.43 l -0.216,-0.734 z" /></g><g
           transform="translate(39.9968,39.4794)"
           id="g338"><path
             id="path340"
             style="fill:#000000;fill-opacity:1;fill-rule:nonzero;stroke:none"
             d="m 0,0 c -0.078,-0.097 -0.136,-0.144 -0.207,-0.204 -0.069,-0.055 -0.139,-0.105 -0.21,-0.152 -0.142,-0.095 -0.289,-0.176 -0.438,-0.251 -0.298,-0.15 -0.606,-0.267 -0.917,-0.373 -0.621,-0.21 -1.258,-0.352 -1.895,-0.472 -0.638,-0.12 -1.28,-0.198 -1.922,-0.263 -0.642,-0.065 -1.285,-0.109 -1.928,-0.133 -0.64,-0.027 -1.289,-0.04 -1.933,-0.034 -0.643,0.007 -1.286,0.031 -1.93,0.067 -0.644,0.037 -1.289,0.082 -1.941,0.168 -0.646,0.085 -1.334,0.214 -1.99,0.479 -0.652,0.26 -1.324,0.668 -1.781,1.328 -0.225,0.326 -0.382,0.703 -0.461,1.087 -0.08,0.383 -0.085,0.769 -0.042,1.137 0.043,0.369 0.134,0.721 0.259,1.06 0.064,0.171 0.137,0.333 0.23,0.505 l 0.239,0.424 c 0.321,0.558 0.649,1.108 0.983,1.654 0.677,1.086 1.371,2.157 2.089,3.212 0.72,1.054 1.451,2.099 2.225,3.117 0.063,0.082 0.179,0.098 0.261,0.036 0.074,-0.057 0.093,-0.158 0.051,-0.237 C -12.466,9.911 -13.743,7.709 -14.971,5.492 -15.28,4.939 -15.587,4.386 -15.88,3.83 l -0.217,-0.416 c -0.055,-0.109 -0.107,-0.24 -0.153,-0.368 -0.092,-0.259 -0.157,-0.528 -0.185,-0.792 -0.057,-0.531 0.043,-1.028 0.322,-1.418 0.271,-0.396 0.721,-0.703 1.242,-0.915 0.525,-0.217 1.097,-0.335 1.71,-0.421 0.609,-0.088 1.233,-0.156 1.858,-0.208 0.626,-0.052 1.255,-0.089 1.884,-0.119 0.628,-0.033 1.253,-0.049 1.885,-0.051 1.258,-0.004 2.517,0.025 3.762,0.156 0.621,0.064 1.239,0.16 1.842,0.296 0.301,0.07 0.597,0.156 0.883,0.26 0.142,0.052 0.282,0.11 0.415,0.177 0.066,0.033 0.13,0.069 0.19,0.107 0.057,0.035 0.125,0.087 0.151,0.111 l 0.025,0.022 C -0.191,0.319 -0.075,0.313 -0.007,0.238 0.054,0.17 0.056,0.069 0,0" /></g><g
           transform="translate(33.5323,45.0597)"
           id="g342"><path
             id="path344"
             style="fill:#000000;fill-opacity:1;fill-rule:nonzero;stroke:none"
             d="M 0,0 C 0.18,-0.019 0.368,-0.043 0.549,-0.07 0.731,-0.097 0.913,-0.129 1.094,-0.166 1.457,-0.239 1.815,-0.332 2.167,-0.449 2.235,-0.472 2.272,-0.546 2.249,-0.614 2.227,-0.681 2.156,-0.717 2.09,-0.699 1.745,-0.602 1.394,-0.53 1.039,-0.477 0.862,-0.45 0.684,-0.428 0.506,-0.41 c -0.18,0.018 -0.354,0.031 -0.538,0.041 -0.102,0.006 -0.18,0.093 -0.174,0.195 0.005,0.102 0.093,0.18 0.195,0.175 C -0.008,0.001 -0.005,0 -0.003,0 Z" /></g><g
           transform="translate(29.235,44.8225)"
           id="g346"><path
             id="path348"
             style="fill:#000000;fill-opacity:1;fill-rule:nonzero;stroke:none"
             d="M 0,0 C 0.318,0.057 0.628,0.097 0.944,0.132 1.258,0.166 1.572,0.192 1.888,0.21 2.518,0.246 3.15,0.25 3.781,0.214 3.853,0.21 3.908,0.148 3.904,0.076 3.9,0.006 3.84,-0.049 3.77,-0.047 3.15,-0.029 2.529,-0.051 1.91,-0.105 1.601,-0.131 1.293,-0.166 0.986,-0.209 0.68,-0.251 0.37,-0.301 0.074,-0.363 L 0.07,-0.364 c -0.1,-0.021 -0.198,0.044 -0.219,0.144 -0.021,0.1 0.044,0.198 0.144,0.219 C -0.004,-0.001 -0.001,0 0,0" /></g><g
           transform="translate(59.673,51.2971)"
           id="g350"><path
             id="path352"
             style="fill:#000000;fill-opacity:1;fill-rule:nonzero;stroke:none"
             d="m 0,0 c 0.78,-1.11 1.541,-2.233 2.294,-3.362 0.38,-0.562 0.748,-1.132 1.12,-1.699 0.367,-0.571 0.732,-1.143 1.084,-1.724 L 4.597,-6.948 4.456,-7.037 H 4.455 C 4.146,-7.365 3.842,-7.713 3.588,-8.072 3.334,-8.431 3.115,-8.812 3.027,-9.18 3.005,-9.271 2.988,-9.36 2.984,-9.445 c -0.003,-0.039 -0.002,-0.094 0,-0.116 0.004,-0.053 0.005,-0.13 0.013,-0.161 0.023,-0.168 0.072,-0.353 0.149,-0.506 0.154,-0.314 0.436,-0.571 0.787,-0.783 0.176,-0.105 0.369,-0.198 0.573,-0.287 l 0.316,-0.133 c 0.114,-0.048 0.218,-0.093 0.312,-0.13 0.406,-0.156 0.845,-0.279 1.286,-0.395 0.884,-0.229 1.793,-0.405 2.705,-0.56 1.824,-0.314 3.672,-0.525 5.523,-0.648 1.849,-0.119 3.71,-0.161 5.542,0.021 0.912,0.098 1.825,0.246 2.663,0.548 0.416,0.153 0.815,0.35 1.12,0.622 0.151,0.137 0.275,0.291 0.355,0.461 0.02,0.043 0.038,0.087 0.052,0.131 0.006,0.021 0.016,0.048 0.02,0.064 l 0.021,0.085 c 0.023,0.101 0.038,0.194 0.045,0.3 0.033,0.408 -0.074,0.82 -0.281,1.193 -0.204,0.375 -0.498,0.713 -0.826,1.015 -0.662,0.606 -1.456,1.084 -2.276,1.496 -0.824,0.411 -1.685,0.758 -2.562,1.043 -0.879,0.281 -1.782,0.504 -2.691,0.677 -1.82,0.342 -3.685,0.487 -5.526,0.308 -0.102,-0.011 -0.192,0.064 -0.203,0.165 -0.01,0.101 0.064,0.191 0.165,0.203 1.883,0.205 3.786,0.078 5.642,-0.25 0.929,-0.166 1.848,-0.381 2.753,-0.659 0.905,-0.283 1.787,-0.627 2.642,-1.041 0.851,-0.417 1.683,-0.901 2.412,-1.55 0.361,-0.327 0.697,-0.698 0.947,-1.143 0.251,-0.439 0.401,-0.967 0.364,-1.495 -0.007,-0.127 -0.028,-0.266 -0.055,-0.393 l -0.019,-0.086 c -0.009,-0.041 -0.019,-0.069 -0.029,-0.104 -0.021,-0.067 -0.045,-0.133 -0.074,-0.197 -0.114,-0.255 -0.286,-0.474 -0.479,-0.654 -0.389,-0.36 -0.844,-0.586 -1.298,-0.766 -0.917,-0.351 -1.863,-0.519 -2.806,-0.64 -1.888,-0.228 -3.779,-0.24 -5.662,-0.167 -1.884,0.083 -3.76,0.265 -5.628,0.548 -0.933,0.148 -1.863,0.323 -2.791,0.555 -0.464,0.118 -0.926,0.251 -1.393,0.431 -0.124,0.047 -0.233,0.096 -0.336,0.139 l -0.329,0.14 c -0.224,0.099 -0.454,0.208 -0.679,0.344 -0.225,0.134 -0.445,0.296 -0.646,0.494 -0.197,0.2 -0.37,0.439 -0.491,0.705 -0.061,0.133 -0.107,0.272 -0.144,0.412 -0.031,0.144 -0.052,0.275 -0.058,0.432 -0.007,0.085 -0.002,0.125 -0.003,0.189 0.001,0.095 0.007,0.157 0.017,0.234 0.019,0.147 0.055,0.287 0.1,0.42 0.192,0.528 0.51,0.938 0.855,1.292 0.351,0.353 0.728,0.654 1.155,0.901 L 4.234,-6.74 4.191,-6.992 C 3.785,-6.448 3.392,-5.895 3,-5.341 c -0.386,0.558 -0.776,1.113 -1.155,1.676 -0.764,1.121 -1.52,2.248 -2.256,3.388 -0.075,0.115 -0.042,0.268 0.073,0.343 C -0.225,0.138 -0.076,0.108 0,0" /></g><g
           transform="translate(71.0334,46.2648)"
           id="g354"><path
             id="path356"
             style="fill:#000000;fill-opacity:1;fill-rule:nonzero;stroke:none"
             d="m 0,0 c -0.561,0.83 -1.096,1.676 -1.632,2.521 -0.521,0.853 -1.058,1.698 -1.566,2.56 -0.511,0.86 -1.033,1.713 -1.532,2.581 -0.506,0.863 -1.005,1.73 -1.491,2.605 -0.05,0.09 -0.018,0.203 0.072,0.252 0.085,0.048 0.192,0.02 0.244,-0.06 0.551,-0.836 1.089,-1.68 1.62,-2.528 C -3.747,7.087 -3.233,6.23 -2.707,5.378 -2.178,4.529 -1.678,3.663 -1.162,2.805 -0.661,1.939 -0.159,1.074 0.317,0.192 0.365,0.102 0.332,-0.011 0.242,-0.059 0.157,-0.105 0.053,-0.077 0,0" /></g><g
           transform="translate(37.0421,68.8889)"
           id="g358"><path
             id="path360"
             style="fill:#000000;fill-opacity:1;fill-rule:nonzero;stroke:none"
             d="M 0,0 C -0.091,0.062 -0.226,0.137 -0.349,0.198 -0.476,0.26 -0.607,0.318 -0.741,0.371 -1.008,0.477 -1.286,0.564 -1.568,0.637 -2.133,0.781 -2.718,0.863 -3.307,0.897 -3.896,0.93 -4.489,0.915 -5.081,0.861 -5.374,0.834 -5.676,0.796 -5.961,0.75 -6.236,0.701 -6.521,0.622 -6.8,0.531 c -1.121,-0.374 -2.208,-0.91 -3.254,-1.495 -0.523,-0.296 -1.036,-0.609 -1.526,-0.948 -0.248,-0.168 -0.47,-0.347 -0.722,-0.538 -0.247,-0.186 -0.501,-0.366 -0.766,-0.532 -0.528,-0.335 -1.103,-0.614 -1.711,-0.795 -0.607,-0.183 -1.244,-0.264 -1.873,-0.255 -0.63,0.008 -1.252,0.101 -1.856,0.247 -0.302,0.074 -0.6,0.16 -0.894,0.257 -0.073,0.024 -0.152,0.052 -0.22,0.077 -0.076,0.029 -0.155,0.059 -0.227,0.092 -0.146,0.065 -0.29,0.137 -0.428,0.218 -1.111,0.652 -1.894,1.7 -2.438,2.81 -0.541,1.121 -0.86,2.339 -0.951,3.575 -0.044,0.618 -0.029,1.243 0.062,1.859 l 0.259,1.802 c 0.165,1.201 0.311,2.405 0.412,3.612 0.099,1.206 0.162,2.417 0.107,3.621 -0.017,0.299 -0.032,0.605 -0.079,0.892 -0.047,0.294 -0.113,0.587 -0.187,0.878 -0.15,0.583 -0.337,1.157 -0.56,1.716 -0.223,0.558 -0.482,1.104 -0.802,1.609 -0.322,0.504 -0.703,0.967 -1.21,1.281 -0.991,0.669 -2.178,1.05 -3.378,1.034 -0.597,-0.006 -1.2,-0.098 -1.768,-0.278 -0.563,-0.19 -1.073,-0.526 -1.51,-0.935 -0.438,-0.411 -0.809,-0.891 -1.129,-1.402 -0.317,-0.512 -0.593,-1.055 -0.8,-1.619 l -0.099,0.041 v 0.001 l -0.047,0.024 c 0.284,0.534 0.626,1.023 1.014,1.481 0.388,0.455 0.826,0.873 1.322,1.217 0.496,0.343 1.053,0.61 1.649,0.744 0.594,0.137 1.22,0.133 1.814,0.003 0.596,-0.128 1.159,-0.373 1.677,-0.679 0.259,-0.154 0.508,-0.323 0.747,-0.504 0.235,-0.181 0.487,-0.366 0.682,-0.619 0.39,-0.493 0.604,-1.078 0.755,-1.66 0.149,-0.585 0.229,-1.18 0.278,-1.775 0.093,-1.191 0.059,-2.382 -0.023,-3.566 -0.084,-1.184 -0.224,-2.362 -0.39,-3.534 -0.166,-1.168 -0.316,-2.335 -0.378,-3.504 -0.063,-1.168 -0.036,-2.34 0.157,-3.484 0.191,-1.143 0.558,-2.254 1.121,-3.259 0.56,-1.008 1.311,-1.902 2.18,-2.664 0.218,-0.19 0.44,-0.375 0.672,-0.549 0.223,-0.164 0.466,-0.322 0.713,-0.457 0.495,-0.275 1.028,-0.477 1.58,-0.603 1.106,-0.253 2.272,-0.192 3.391,0.06 1.123,0.254 2.206,0.688 3.244,1.212 0.259,0.131 0.517,0.268 0.771,0.409 0.243,0.139 0.491,0.297 0.736,0.455 l 1.48,0.976 c 0.5,0.323 1.009,0.638 1.546,0.921 0.538,0.278 1.097,0.543 1.747,0.66 0.159,0.028 0.34,0.043 0.501,0.037 0.153,-0.002 0.312,-0.01 0.467,-0.024 0.311,-0.028 0.625,-0.081 0.935,-0.172 0.308,-0.091 0.614,-0.221 0.895,-0.41 0.141,-0.095 0.274,-0.203 0.396,-0.33 0.061,-0.064 0.118,-0.132 0.172,-0.205 0.027,-0.037 0.053,-0.076 0.078,-0.117 0.026,-0.046 0.044,-0.074 0.077,-0.15 0.069,-0.177 -0.019,-0.377 -0.197,-0.446 -0.177,-0.069 -0.377,0.019 -0.446,0.196 0.004,-0.008 -0.014,0.029 -0.025,0.047 -0.013,0.022 -0.028,0.045 -0.044,0.068 -0.033,0.045 -0.071,0.091 -0.112,0.134 -0.082,0.088 -0.177,0.167 -0.281,0.239 -0.209,0.142 -0.451,0.25 -0.707,0.328 -0.257,0.079 -0.528,0.127 -0.803,0.155 -0.14,0.013 -0.275,0.021 -0.418,0.024 -0.134,0.005 -0.249,-0.004 -0.381,-0.024 -0.518,-0.087 -1.048,-0.322 -1.557,-0.582 -0.51,-0.263 -1.009,-0.566 -1.504,-0.879 l -1.486,-0.962 c -0.252,-0.161 -0.504,-0.319 -0.775,-0.47 -0.263,-0.144 -0.528,-0.282 -0.797,-0.415 -1.074,-0.53 -2.203,-0.974 -3.389,-1.232 -1.182,-0.256 -2.435,-0.315 -3.636,-0.029 -0.599,0.141 -1.179,0.367 -1.714,0.67 -0.27,0.151 -0.522,0.317 -0.773,0.506 -0.239,0.181 -0.47,0.377 -0.695,0.577 -0.9,0.802 -1.682,1.749 -2.262,2.813 -0.584,1.062 -0.957,2.231 -1.145,3.418 -0.191,1.189 -0.207,2.394 -0.133,3.582 0.073,1.19 0.235,2.367 0.411,3.536 0.175,1.166 0.324,2.333 0.417,3.505 0.091,1.171 0.133,2.348 0.052,3.514 -0.043,0.582 -0.116,1.162 -0.254,1.723 -0.139,0.558 -0.34,1.109 -0.684,1.549 -0.166,0.22 -0.393,0.392 -0.623,0.572 -0.231,0.177 -0.47,0.342 -0.717,0.492 -0.495,0.298 -1.028,0.535 -1.587,0.66 -0.559,0.126 -1.142,0.134 -1.701,0.011 -0.559,-0.121 -1.089,-0.368 -1.566,-0.693 -0.951,-0.656 -1.722,-1.585 -2.283,-2.594 l -0.047,0.024 h -0.001 l -0.099,0.041 c 0.21,0.578 0.479,1.127 0.797,1.65 0.319,0.521 0.692,1.014 1.138,1.439 0.444,0.424 0.967,0.779 1.556,0.983 0.588,0.192 1.199,0.291 1.816,0.303 1.235,0.03 2.469,-0.353 3.496,-1.033 0.536,-0.325 0.953,-0.82 1.285,-1.334 0.336,-0.519 0.606,-1.073 0.839,-1.64 0.232,-0.567 0.427,-1.149 0.586,-1.741 0.079,-0.297 0.149,-0.595 0.202,-0.901 0.053,-0.313 0.07,-0.614 0.09,-0.921 0.068,-1.224 0.015,-2.446 -0.072,-3.661 -0.091,-1.216 -0.225,-2.426 -0.379,-3.633 L -23.24,5.051 c -0.081,-0.587 -0.09,-1.184 -0.042,-1.777 0.099,-1.185 0.418,-2.357 0.944,-3.419 0.527,-1.054 1.282,-2.026 2.288,-2.601 0.125,-0.072 0.254,-0.135 0.385,-0.192 0.067,-0.029 0.13,-0.053 0.196,-0.078 0.075,-0.026 0.139,-0.049 0.211,-0.071 0.283,-0.091 0.57,-0.17 0.859,-0.238 0.577,-0.134 1.165,-0.215 1.751,-0.216 0.585,-0.003 1.167,0.077 1.722,0.249 0.555,0.172 1.082,0.433 1.576,0.753 0.248,0.159 0.488,0.332 0.725,0.514 0.231,0.178 0.48,0.382 0.734,0.557 0.505,0.358 1.027,0.683 1.559,0.99 1.067,0.609 2.163,1.166 3.345,1.574 0.298,0.099 0.598,0.188 0.921,0.249 0.314,0.054 0.615,0.093 0.926,0.125 0.618,0.063 1.242,0.085 1.866,0.056 0.624,-0.03 1.249,-0.111 1.863,-0.261 0.307,-0.076 0.61,-0.168 0.909,-0.283 0.149,-0.057 0.297,-0.12 0.443,-0.191 C 0.09,0.718 0.224,0.65 0.385,0.542 0.537,0.44 0.578,0.233 0.476,0.081 0.374,-0.072 0.167,-0.112 0.015,-0.01 c -10e-4,0 -10e-4,0.001 -0.002,0.001 z" /></g><g
           transform="translate(66.7654,86.0229)"
           id="g362"><path
             id="path364"
             style="fill:#000000;fill-opacity:1;fill-rule:nonzero;stroke:none"
             d="M 0,0 C 0.338,-0.234 0.641,-0.555 0.862,-0.935 1.082,-1.316 1.221,-1.756 1.258,-2.197 1.305,-2.639 1.262,-3.078 1.173,-3.496 1.088,-3.915 0.952,-4.314 0.79,-4.696 0.463,-5.458 0.042,-6.154 -0.402,-6.824 c -0.444,-0.67 -0.927,-1.305 -1.43,-1.92 -1.001,-1.233 -2.076,-2.39 -3.182,-3.511 -1.104,-1.122 -2.247,-2.203 -3.419,-3.25 -0.076,-0.069 -0.193,-0.063 -0.262,0.014 -0.063,0.07 -0.062,0.177 -10e-4,0.246 l 3.112,3.52 c 1.027,1.177 2.039,2.364 2.986,3.588 0.931,1.229 1.843,2.491 2.439,3.852 0.299,0.674 0.524,1.367 0.551,2.053 0.03,0.685 -0.197,1.354 -0.653,1.969 -0.062,0.084 -0.045,0.201 0.039,0.262 0.066,0.049 0.153,0.048 0.217,0.004 z" /></g><g
           transform="translate(67.4187,84.8769)"
           id="g366"><path
             id="path368"
             style="fill:#000000;fill-opacity:1;fill-rule:nonzero;stroke:none"
             d="m 0,0 4.513,1.064 c 0.75,0.183 1.501,0.358 2.244,0.554 0.371,0.095 0.741,0.194 1.104,0.302 0.364,0.106 0.708,0.23 1.068,0.365 0.713,0.272 1.427,0.563 2.141,0.853 0.716,0.287 1.43,0.581 2.143,0.878 1.427,0.592 2.85,1.201 4.252,1.851 l 0.034,0.016 0.039,0.006 c 1.627,0.285 3.244,0.642 4.856,1.003 l 2.412,0.551 c 0.799,0.186 1.608,0.364 2.369,0.588 1.541,0.489 3.086,1.11 4.631,1.684 l 2.314,0.891 c 0.776,0.289 1.546,0.591 2.323,0.876 0.096,0.036 0.203,-0.014 0.238,-0.11 0.033,-0.089 -0.007,-0.187 -0.09,-0.229 C 35.851,10.767 35.1,10.417 34.352,10.06 33.601,9.709 32.844,9.372 32.086,9.034 31.33,8.694 30.566,8.368 29.796,8.055 29.026,7.739 28.253,7.438 27.445,7.171 27.034,7.038 26.626,6.93 26.219,6.833 25.812,6.736 25.406,6.642 24.997,6.561 24.183,6.39 23.364,6.254 22.546,6.113 21.728,5.975 20.909,5.845 20.09,5.718 L 17.638,5.31 17.711,5.333 C 16.3,4.692 14.901,4.029 13.495,3.374 12.086,2.725 10.683,2.071 9.215,1.523 8.851,1.384 8.463,1.255 8.082,1.152 7.701,1.046 7.322,0.953 6.942,0.863 6.182,0.69 5.422,0.529 4.659,0.386 3.896,0.244 3.132,0.108 2.368,-0.022 1.602,-0.141 0.837,-0.266 0.067,-0.364 H 0.066 c -0.102,-0.013 -0.194,0.058 -0.207,0.16 C -0.154,-0.109 -0.091,-0.022 0,0" /></g><g
           transform="translate(44.7819,72.6022)"
           id="g370"><path
             id="path372"
             style="fill:#000000;fill-opacity:1;fill-rule:nonzero;stroke:none"
             d="m 0,0 c -0.167,0.302 -0.327,0.619 -0.464,0.941 -0.137,0.325 -0.256,0.66 -0.335,1.011 -0.078,0.349 -0.116,0.719 -0.061,1.092 0.052,0.372 0.224,0.742 0.495,1.014 l 0.001,0.001 0.026,0.029 0.044,0.016 2.212,0.794 C 2.021,4.935 2.135,4.881 2.172,4.778 2.209,4.675 2.155,4.562 2.052,4.525 2.052,4.524 2.05,4.524 2.05,4.524 L -0.171,3.754 -0.1,3.799 v 0 C -0.316,3.581 -0.449,3.298 -0.494,2.989 -0.54,2.68 -0.509,2.352 -0.437,2.032 -0.365,1.711 -0.254,1.395 -0.123,1.086 0.009,0.776 0.159,0.478 0.325,0.177 0.375,0.088 0.342,-0.025 0.253,-0.075 0.163,-0.124 0.051,-0.092 0.001,-0.002 Z" /></g><g
           transform="translate(51.2219,64.8582)"
           id="g374"><path
             id="path376"
             style="fill:#000000;fill-opacity:1;fill-rule:nonzero;stroke:none"
             d="m 0,0 c -0.048,0 -0.095,0.018 -0.132,0.055 -2.073,2.096 -3.726,3.967 -4.91,5.56 -0.061,0.082 -0.044,0.198 0.038,0.259 0.082,0.062 0.198,0.045 0.259,-0.038 C -3.571,4.257 -1.93,2.399 0.132,0.315 0.204,0.243 0.203,0.125 0.13,0.053 0.094,0.018 0.047,0 0,0" /></g><g
           transform="translate(58.896,58.6101)"
           id="g378"><path
             id="path380"
             style="fill:#000000;fill-opacity:1;fill-rule:nonzero;stroke:none"
             d="m 0,0 c -0.032,0 -0.064,0.008 -0.094,0.026 -1.978,1.169 -3.988,2.708 -5.974,4.575 -0.075,0.07 -0.079,0.187 -0.009,0.261 0.07,0.075 0.188,0.078 0.262,0.008 C -3.848,3.023 -1.86,1.5 0.094,0.345 0.182,0.293 0.212,0.179 0.16,0.091 0.125,0.032 0.063,0 0,0" /></g><g
           transform="translate(66.1111,59.6579)"
           id="g382"><path
             id="path384"
             style="fill:#000000;fill-opacity:1;fill-rule:nonzero;stroke:none"
             d="m 0,0 -0.094,-2.191 -0.003,-0.081 -0.05,-0.045 v -10e-4 c -0.325,-0.331 -0.768,-0.519 -1.201,-0.589 -0.437,-0.074 -0.874,-0.055 -1.297,0.005 -0.848,0.125 -1.652,0.402 -2.424,0.731 -0.094,0.04 -0.138,0.148 -0.098,0.242 0.04,0.094 0.149,0.138 0.243,0.098 h 0.001 c 0.752,-0.321 1.533,-0.587 2.33,-0.705 0.397,-0.056 0.799,-0.072 1.182,-0.006 0.382,0.062 0.74,0.22 0.999,0.484 h 0.001 l -0.053,-0.126 -0.011,2.193 c 0,0.131 0.105,0.238 0.237,0.239 C -0.107,0.248 0,0.142 0,0.011 0,0.008 0,0.003 0,0" /></g><g
           transform="translate(61.703,59.5045)"
           id="g386"><path
             id="path388"
             style="fill:#000000;fill-opacity:1;fill-rule:nonzero;stroke:none"
             d="M 0,0 C 0.435,-0.183 0.873,-0.34 1.317,-0.471 1.759,-0.597 2.213,-0.692 2.651,-0.698 3.088,-0.702 3.5,-0.602 3.71,-0.303 3.8,-0.181 3.865,0.009 3.881,0.204 3.898,0.402 3.879,0.615 3.838,0.829 3.756,1.257 3.594,1.686 3.405,2.102 3.215,2.518 2.993,2.925 2.753,3.322 2.269,4.115 1.735,4.885 1.159,5.624 0.01,7.107 -1.282,8.481 -2.623,9.8 c -1.341,1.321 -2.734,2.589 -4.156,3.838 -0.078,0.067 -0.085,0.184 -0.018,0.262 0.062,0.07 0.165,0.082 0.242,0.032 1.596,-1.049 3.075,-2.272 4.456,-3.593 C -0.721,9.013 0.561,7.586 1.73,6.064 2.309,5.298 2.866,4.511 3.343,3.668 3.582,3.246 3.804,2.814 3.997,2.362 4.186,1.91 4.353,1.441 4.437,0.933 4.478,0.68 4.497,0.416 4.467,0.142 4.432,-0.133 4.35,-0.413 4.149,-0.668 4.069,-0.771 3.943,-0.883 3.82,-0.958 3.694,-1.037 3.56,-1.092 3.426,-1.131 3.157,-1.208 2.891,-1.219 2.635,-1.208 c -0.512,0.03 -0.991,0.156 -1.452,0.31 -0.461,0.154 -0.905,0.351 -1.334,0.56 l -0.002,0.001 c -0.092,0.044 -0.13,0.155 -0.085,0.247 C -0.195,-0.001 -0.09,0.038 0,0" /></g><g
           transform="translate(45.9705,73.8529)"
           id="g390"><path
             id="path392"
             style="fill:#000000;fill-opacity:1;fill-rule:nonzero;stroke:none"
             d="m 0,0 c -0.193,0.404 -0.367,0.826 -0.485,1.271 -0.113,0.443 -0.195,0.925 -0.054,1.424 0.037,0.122 0.091,0.244 0.163,0.356 0.04,0.059 0.071,0.101 0.13,0.166 0.038,0.039 0.073,0.077 0.136,0.127 0.217,0.174 0.463,0.262 0.706,0.307 0.49,0.087 0.96,0.025 1.41,-0.067 C 2.137,3.557 2.222,3.429 2.195,3.297 2.168,3.166 2.04,3.082 1.909,3.109 c -0.002,0 -0.004,0 -0.005,10e-4 L 1.9,3.111 C 1.489,3.206 1.063,3.264 0.676,3.202 0.485,3.173 0.302,3.103 0.17,3.002 0.144,2.986 0.102,2.945 0.062,2.905 0.047,2.889 0.008,2.844 -0.013,2.811 -0.063,2.738 -0.102,2.656 -0.131,2.568 -0.245,2.209 -0.196,1.778 -0.099,1.369 0.002,0.956 0.157,0.552 0.337,0.154 c 0.042,-0.093 0,-0.203 -0.093,-0.245 -0.092,-0.041 -0.2,-0.001 -0.243,0.089 z" /></g><g
           transform="translate(52.2941,65.9679)"
           id="g394"><path
             id="path396"
             style="fill:#000000;fill-opacity:1;fill-rule:nonzero;stroke:none"
             d="M 0,0 C -0.903,0.847 -1.776,1.728 -2.607,2.649 -3.437,3.57 -4.228,4.53 -4.948,5.546 -5.007,5.629 -4.987,5.745 -4.904,5.804 -4.82,5.863 -4.705,5.843 -4.646,5.76 -4.645,5.759 -4.644,5.757 -4.643,5.756 -3.956,4.741 -3.194,3.772 -2.39,2.84 -1.585,1.908 -0.737,1.013 0.144,0.15 0.185,0.11 0.186,0.044 0.146,0.003 0.106,-0.038 0.041,-0.038 0,0" /></g><g
           transform="translate(60.1456,59.8779)"
           id="g398"><path
             id="path400"
             style="fill:#000000;fill-opacity:1;fill-rule:nonzero;stroke:none"
             d="m 0,0 c -2.169,1.238 -4.159,2.756 -6.02,4.402 -0.05,0.044 -0.055,0.12 -0.011,0.17 0.044,0.049 0.119,0.054 0.169,0.011 1.88,-1.605 3.881,-3.076 6.044,-4.26 C 0.271,0.274 0.304,0.161 0.255,0.071 0.206,-0.018 0.093,-0.051 0.004,-0.002 0.003,-0.002 0.001,0 0,0" /></g><g
           transform="translate(112.7088,109.113)"
           id="g402"><path
             id="path404"
             style="fill:#000000;fill-opacity:1;fill-rule:nonzero;stroke:none"
             d="M 0,0 C -0.028,0 -0.055,0.006 -0.082,0.019 -0.173,0.064 -0.211,0.176 -0.166,0.267 L 3.813,8.322 C 3.858,8.413 3.969,8.451 4.061,8.406 4.152,8.36 4.19,8.249 4.145,8.158 L 0.166,0.103 C 0.134,0.038 0.068,0 0,0" /></g><g
           transform="translate(115.8239,109.1086)"
           id="g406"><path
             id="path408"
             style="fill:#000000;fill-opacity:1;fill-rule:nonzero;stroke:none"
             d="M 0,0 C -0.026,0 -0.052,0.005 -0.077,0.017 -0.17,0.06 -0.211,0.17 -0.168,0.263 L 3.107,7.37 C 3.15,7.462 3.259,7.503 3.352,7.46 3.445,7.417 3.486,7.307 3.443,7.215 L 0.168,0.108 C 0.137,0.04 0.07,0 0,0" /></g><g
           transform="translate(107.1959,92.0442)"
           id="g410"><path
             id="path412"
             style="fill:#000000;fill-opacity:1;fill-rule:nonzero;stroke:none"
             d="m 0,0 c -0.276,0 -0.592,0.057 -0.918,0.226 -0.911,0.475 -1.455,1.173 -1.478,1.202 l -0.07,0.092 2.228,4.511 c 0.046,0.092 0.157,0.13 0.249,0.084 C 0.102,6.07 0.14,5.959 0.095,5.867 L -2.03,1.568 C -1.86,1.374 -1.402,0.896 -0.747,0.554 -0.078,0.207 0.542,0.445 0.718,0.526 l 2.36,5.122 C 3.121,5.74 3.23,5.781 3.324,5.738 3.416,5.696 3.457,5.586 3.414,5.493 L 1.002,0.259 0.951,0.229 C 0.926,0.216 0.539,0 0,0" /></g><g
           transform="translate(118.0286,117.9458)"
           id="g414"><path
             id="path416"
             style="fill:#000000;fill-opacity:1;fill-rule:nonzero;stroke:none"
             d="m 0,0 c 0.135,0 0.268,-0.027 0.394,-0.094 0.578,-0.308 0.602,-1.121 0.59,-1.43 0.239,0.008 0.818,0.098 1.144,0.751 0.43,0.859 -0.22,1.289 -0.247,1.307 L 1.567,0.736 1.94,0.737 c 0.031,0 3.147,0.045 4.908,3.485 C 7.549,5.594 8.812,8.991 5.422,10.898 5.41,10.905 4.125,11.59 2.635,11.101 1.419,10.703 0.405,9.654 -0.378,7.985 -2.139,4.238 0.078,1.588 0.101,1.562 l 0.24,-0.28 -0.355,0.102 c -0.038,0.012 -0.933,0.257 -1.31,-0.794 -0.211,-0.588 -0.159,-0.885 -0.079,-1.031 0.045,-0.08 0.102,-0.12 0.141,-0.14 C -1.093,-0.437 -0.536,0 0,0 m 0.927,-1.743 c -0.044,0 -0.071,0.002 -0.072,0.002 l -0.111,0.012 0.012,0.11 c 0.002,0.01 0.107,1.026 -0.465,1.331 -0.574,0.304 -1.446,-0.491 -1.454,-0.499 l -0.041,-0.038 -0.053,0.01 c -0.022,0.004 -0.209,0.043 -0.333,0.258 -0.155,0.269 -0.135,0.68 0.059,1.221 0.31,0.865 0.941,0.98 1.306,0.968 -0.496,0.719 -1.885,3.185 -0.352,6.446 0.811,1.729 1.87,2.816 3.147,3.234 1.583,0.516 2.903,-0.191 2.959,-0.221 C 7.997,9.702 8.563,7.097 7.044,4.122 5.523,1.152 3.014,0.629 2.202,0.537 2.414,0.296 2.672,-0.178 2.325,-0.872 1.922,-1.677 1.165,-1.743 0.927,-1.743" /></g><g
           transform="translate(42.366,40.1587)"
           id="g418"><path
             id="path420"
             style="fill:#000000;fill-opacity:1;fill-rule:nonzero;stroke:none"
             d="m 0,0 c 0.595,-0.263 1.196,-0.499 1.807,-0.689 0.609,-0.184 1.234,-0.335 1.834,-0.342 0.297,-0.002 0.588,0.034 0.823,0.132 0.117,0.049 0.218,0.112 0.301,0.19 l 0.324,0.338 1.363,1.411 c 0.911,0.939 1.824,1.875 2.745,2.804 0.917,0.933 1.84,1.859 2.767,2.781 1.844,1.855 3.718,3.679 5.602,5.493 1.896,1.803 3.801,3.597 5.77,5.325 0.077,0.068 0.194,0.06 0.262,-0.017 0.062,-0.071 0.06,-0.177 -10e-4,-0.246 C 21.852,15.226 20.042,13.336 18.224,11.455 16.395,9.586 14.555,7.727 12.685,5.898 11.755,4.979 10.822,4.063 9.881,3.155 8.945,2.241 8.001,1.336 7.055,0.432 L 5.633,-0.919 5.259,-1.27 C 5.096,-1.408 4.909,-1.508 4.721,-1.575 4.342,-1.709 3.966,-1.721 3.612,-1.698 2.903,-1.641 2.253,-1.439 1.629,-1.196 1.006,-0.952 0.411,-0.653 -0.164,-0.332 l -0.001,0.001 c -0.09,0.05 -0.122,0.163 -0.072,0.252 C -0.19,0.005 -0.086,0.038 0,0" /></g><g
           transform="translate(34.4236,45.7107)"
           id="g422"><path
             id="path424"
             style="fill:#000000;fill-opacity:1;fill-rule:nonzero;stroke:none"
             d="M 0,0 C 0.921,-0.809 1.869,-1.584 2.847,-2.32 3.825,-3.054 4.833,-3.749 5.874,-4.386 5.962,-4.439 5.99,-4.553 5.936,-4.641 5.883,-4.728 5.77,-4.756 5.682,-4.703 c -0.001,0.001 -0.003,0.002 -0.003,0.002 -2.082,1.33 -4.016,2.87 -5.835,4.525 -0.049,0.043 -0.053,0.118 -0.01,0.166 C -0.123,0.038 -0.048,0.042 0,0" /></g><g
           transform="translate(27.983,52.8757)"
           id="g426"><path
             id="path428"
             style="fill:#000000;fill-opacity:1;fill-rule:nonzero;stroke:none"
             d="m 0,0 c 0.671,-0.993 1.415,-1.937 2.198,-2.849 0.784,-0.911 1.608,-1.789 2.46,-2.639 0.048,-0.048 0.048,-0.126 0,-0.174 C 4.611,-5.71 4.534,-5.71 4.486,-5.664 c -0.871,0.839 -1.715,1.707 -2.52,2.612 -0.804,0.905 -1.573,1.847 -2.27,2.841 l -0.001,0.001 c -0.059,0.084 -0.039,0.199 0.045,0.258 0.084,0.059 0.199,0.038 0.258,-0.045 C -0.001,0.002 0,0.001 0,0" /></g><g
           transform="translate(44.6811,76.4007)"
           id="g430"><path
             id="path432"
             style="fill:#000000;fill-opacity:1;fill-rule:nonzero;stroke:none"
             d="m 0,0 c -0.837,-0.906 -1.685,-1.799 -2.534,-2.692 l -2.563,-2.664 c -1.72,-1.765 -3.448,-3.521 -5.19,-5.264 -1.738,-1.746 -3.483,-3.486 -5.243,-5.212 l -2.638,-2.589 c -0.165,-0.162 -0.272,-0.406 -0.305,-0.672 -0.037,-0.268 -0.014,-0.557 0.041,-0.843 0.113,-0.574 0.333,-1.141 0.59,-1.689 v -0.001 c 0.043,-0.093 0.004,-0.203 -0.089,-0.247 -0.09,-0.042 -0.196,-0.005 -0.242,0.081 -0.295,0.552 -0.558,1.129 -0.707,1.761 -0.072,0.316 -0.116,0.648 -0.084,0.993 0.031,0.344 0.154,0.707 0.42,0.99 l 2.569,2.658 c 1.712,1.773 3.438,3.531 5.172,5.282 1.729,1.756 3.472,3.497 5.223,5.231 l 2.644,2.583 c 0.887,0.856 1.774,1.712 2.673,2.555 0.075,0.07 0.192,0.066 0.262,-0.009 C 0.066,0.181 0.065,0.071 0,0" /></g></g></g></g></svg>